{"glyphs":{"0":{"ha":708,"x_min":49,"x_max":681,"o":"m 49 126 l 142 796 l 297 946 l 590 946 l 681 810 l 588 142 l 443 0 l 178 0 l 49 126 m 522 779 l 431 849 l 271 725 l 193 156 l 301 88 l 443 213 l 522 779 z "},"1":{"ha":447,"x_min":1,"x_max":407,"o":"m 297 944 l 407 944 l 344 497 l 276 0 l 114 0 l 183 497 l 268 738 l 92 497 l 1 558 l 297 944 z "},"2":{"ha":613,"x_min":6,"x_max":597,"o":"m 6 0 l 35 208 l 379 531 l 413 758 l 315 881 l 206 788 l 201 669 l 117 669 l 71 786 l 190 942 l 474 942 l 597 801 l 554 499 l 139 125 l 236 160 l 539 160 l 517 0 l 6 0 z "},"3":{"ha":590,"x_min":25,"x_max":594,"o":"m 142 944 l 521 944 l 594 786 l 344 558 l 463 558 l 585 418 l 546 140 l 385 0 l 60 0 l 25 156 l 104 272 l 189 272 l 160 154 l 215 61 l 374 172 l 403 386 l 272 493 l 182 411 l 118 500 l 432 786 l 118 786 l 142 944 z "},"4":{"ha":631,"x_min":13,"x_max":601,"o":"m 467 944 l 576 944 l 494 353 l 601 353 l 581 215 l 475 215 l 446 0 l 283 0 l 307 167 l 353 215 l 86 215 l 13 318 l 467 944 m 371 631 l 181 353 l 379 353 l 340 406 l 371 631 z "},"5":{"ha":613,"x_min":14,"x_max":592,"o":"m 242 943 l 592 944 l 569 785 l 235 786 l 203 558 l 438 558 l 560 418 l 521 140 l 360 0 l 49 0 l 14 156 l 93 272 l 178 272 l 149 154 l 200 68 l 349 172 l 378 386 l 251 490 l 142 417 l 83 494 l 122 786 l 242 943 z "},"6":{"ha":650,"x_min":50,"x_max":624,"o":"m 303 944 l 536 944 l 621 833 l 535 790 l 457 876 l 301 772 l 271 558 l 501 558 l 624 418 l 585 140 l 424 0 l 113 0 l 50 156 l 142 804 l 303 944 m 213 154 l 286 68 l 413 172 l 442 386 l 338 490 l 253 432 l 213 154 z "},"7":{"ha":533,"x_min":49,"x_max":594,"o":"m 72 944 l 549 944 l 594 844 l 335 611 l 368 611 l 283 0 l 121 0 l 211 643 l 372 786 l 49 786 l 72 944 z "},"8":{"ha":606,"x_min":21,"x_max":578,"o":"m 251 944 l 472 944 l 578 822 l 549 603 l 419 501 l 575 367 l 544 133 l 397 0 l 143 0 l 21 153 l 54 379 l 217 506 l 96 638 l 124 835 l 251 944 m 258 810 l 236 638 l 308 575 l 418 661 l 431 764 l 346 865 l 258 810 m 207 336 l 182 153 l 254 67 l 392 181 l 408 299 l 304 413 l 207 336 z "},"9":{"ha":650,"x_min":47,"x_max":621,"o":"m 86 804 l 247 944 l 558 944 l 621 789 l 529 140 l 368 0 l 135 0 l 50 111 l 136 154 l 214 68 l 369 172 l 400 386 l 169 386 l 47 526 l 86 804 m 458 790 l 385 876 l 258 772 l 229 558 l 333 454 l 418 513 l 458 790 z "}," ":{"ha":347,"x_min":0,"x_max":0,"o":""},"A":{"ha":782,"x_min":46,"x_max":761,"o":"m 46 0 l 161 831 l 324 972 l 615 972 l 761 818 l 676 192 l 651 14 l 650 0 l 486 0 l 532 324 l 268 324 l 222 0 l 46 0 m 289 476 l 554 476 l 592 757 l 457 871 l 333 808 l 289 476 z "},"Á":{"ha":783,"x_min":46,"x_max":761,"o":"m 560 1221 l 735 1219 l 515 1040 l 408 1040 l 560 1221 m 46 0 l 161 831 l 324 972 l 615 972 l 761 818 l 676 192 l 651 14 l 650 0 l 486 0 l 532 324 l 268 324 l 222 0 l 46 0 m 289 476 l 554 476 l 592 757 l 457 871 l 333 808 l 289 476 z "},"Ă":{"ha":783,"x_min":46,"x_max":761,"o":"m 353 1203 l 425 1203 l 419 1163 l 483 1122 l 560 1163 l 565 1203 l 639 1203 l 626 1121 l 472 1039 l 340 1122 l 353 1203 m 46 0 l 161 831 l 324 972 l 615 972 l 761 818 l 676 192 l 651 14 l 650 0 l 486 0 l 532 324 l 268 324 l 222 0 l 46 0 m 289 476 l 554 476 l 592 757 l 457 871 l 333 808 l 289 476 z "},"Â":{"ha":783,"x_min":46,"x_max":761,"o":"m 411 1221 l 585 1221 l 686 1040 l 579 1040 l 486 1139 l 367 1040 l 260 1040 l 411 1221 m 46 0 l 161 831 l 324 972 l 615 972 l 761 818 l 676 192 l 651 14 l 650 0 l 486 0 l 532 324 l 268 324 l 222 0 l 46 0 m 289 476 l 554 476 l 592 757 l 457 871 l 333 808 l 289 476 z "},"Ä":{"ha":783,"x_min":46,"x_max":761,"o":"m 351 1035 l 276 1094 l 289 1188 l 376 1222 l 451 1163 l 439 1071 l 351 1035 m 569 1035 l 494 1094 l 507 1188 l 594 1222 l 669 1163 l 657 1071 l 569 1035 m 46 0 l 161 831 l 324 972 l 615 972 l 761 818 l 676 192 l 651 14 l 650 0 l 486 0 l 532 324 l 268 324 l 222 0 l 46 0 m 289 476 l 554 476 l 592 757 l 457 871 l 333 808 l 289 476 z "},"À":{"ha":783,"x_min":46,"x_max":761,"o":"m 247 1219 l 422 1221 l 524 1040 l 417 1040 l 247 1219 m 46 0 l 161 831 l 324 972 l 615 972 l 761 818 l 676 192 l 651 14 l 650 0 l 486 0 l 532 324 l 268 324 l 222 0 l 46 0 m 289 476 l 554 476 l 592 757 l 457 871 l 333 808 l 289 476 z "},"Ā":{"ha":783,"x_min":46,"x_max":761,"o":"m 283 1067 l 299 1179 l 690 1179 l 675 1067 l 283 1067 m 46 0 l 161 831 l 324 972 l 615 972 l 761 818 l 676 192 l 651 14 l 650 0 l 486 0 l 532 324 l 268 324 l 222 0 l 46 0 m 289 476 l 554 476 l 592 757 l 457 871 l 333 808 l 289 476 z "},"Ą":{"ha":783,"x_min":46,"x_max":761,"o":"m 46 0 l 161 831 l 324 972 l 615 972 l 761 818 l 676 192 l 651 14 l 650 0 l 486 0 l 532 324 l 268 324 l 222 0 l 46 0 m 289 476 l 554 476 l 592 757 l 457 871 l 333 808 l 289 476 m 679 -278 l 467 -278 l 400 -131 l 494 -46 l 565 -46 l 597 -83 l 528 -142 l 592 -218 l 693 -147 l 758 -147 l 679 -278 z "},"Å":{"ha":783,"x_min":46,"x_max":761,"o":"m 357 1282 l 511 1365 l 643 1281 l 632 1201 l 619 1118 l 465 1036 l 333 1119 l 346 1201 l 357 1282 m 424 1240 l 413 1160 l 476 1119 l 553 1160 l 558 1201 l 564 1240 l 500 1281 l 424 1240 m 46 0 l 161 831 l 324 972 l 615 972 l 761 818 l 676 192 l 651 14 l 650 0 l 486 0 l 532 324 l 268 324 l 222 0 l 46 0 m 289 476 l 554 476 l 592 757 l 457 871 l 333 808 l 289 476 z "},"Ã":{"ha":783,"x_min":46,"x_max":761,"o":"m 306 1163 l 414 1229 l 586 1138 l 625 1219 l 696 1219 l 679 1096 l 571 1029 l 386 1128 l 358 1039 l 288 1039 l 306 1163 m 46 0 l 161 831 l 324 972 l 615 972 l 761 818 l 676 192 l 651 14 l 650 0 l 486 0 l 532 324 l 268 324 l 222 0 l 46 0 m 289 476 l 554 476 l 592 757 l 457 871 l 333 808 l 289 476 z "},"Æ":{"ha":1150,"x_min":46,"x_max":1186,"o":"m 46 0 l 161 831 l 324 972 l 615 972 l 683 900 l 767 972 l 1088 972 l 1186 815 l 1149 601 l 917 432 l 739 432 l 710 219 l 843 92 l 985 176 l 1010 275 l 1083 275 l 1117 146 l 974 0 l 650 0 l 507 146 l 532 324 l 268 324 l 222 0 l 46 0 m 786 782 l 756 546 l 888 601 l 950 601 l 1050 725 l 958 890 l 786 782 m 289 476 l 554 476 l 592 757 l 457 871 l 333 808 l 289 476 z "},"B":{"ha":735,"x_min":46,"x_max":699,"o":"m 46 0 l 185 972 l 275 972 l 340 911 l 408 972 l 563 972 l 699 815 l 674 636 l 576 525 l 672 408 l 631 131 l 486 0 l 303 0 l 222 93 l 210 0 l 46 0 m 283 506 l 353 565 l 440 565 l 510 625 l 525 742 l 429 871 l 326 813 l 283 506 m 235 176 l 321 176 l 379 111 l 483 204 l 504 335 l 408 464 l 265 382 l 235 176 z "},"C":{"ha":719,"x_min":46,"x_max":713,"o":"m 46 133 l 142 840 l 293 972 l 614 972 l 713 815 l 640 699 l 556 699 l 574 776 l 456 871 l 313 782 l 236 219 l 369 92 l 511 176 l 536 275 l 610 275 l 643 146 l 500 0 l 161 0 l 46 133 z "},"Ć":{"ha":719,"x_min":46,"x_max":724,"o":"m 549 1221 l 724 1219 l 504 1040 l 397 1040 l 549 1221 m 161 0 l 46 133 l 142 840 l 293 972 l 614 972 l 713 815 l 640 699 l 556 699 l 574 776 l 456 871 l 313 782 l 236 219 l 369 92 l 511 176 l 536 275 l 610 275 l 643 146 l 500 0 l 161 0 z "},"Č":{"ha":719,"x_min":46,"x_max":713,"o":"m 374 1042 l 272 1222 l 379 1222 l 471 1124 l 592 1222 l 699 1222 l 547 1042 l 374 1042 m 161 0 l 46 133 l 142 840 l 293 972 l 614 972 l 713 815 l 640 699 l 556 699 l 574 776 l 456 871 l 313 782 l 236 219 l 369 92 l 511 176 l 536 275 l 610 275 l 643 146 l 500 0 l 161 0 z "},"Ç":{"ha":719,"x_min":46,"x_max":713,"o":"m 46 133 l 142 840 l 293 972 l 614 972 l 713 815 l 640 699 l 556 699 l 574 776 l 456 871 l 313 782 l 236 219 l 369 92 l 511 176 l 536 275 l 610 275 l 643 146 l 500 0 l 161 0 l 46 133 m 401 -47 l 472 -132 l 364 -279 l 151 -279 l 108 -149 l 174 -149 l 256 -219 l 342 -143 l 288 -85 l 331 -47 l 401 -47 z "},"Ĉ":{"ha":719,"x_min":46,"x_max":713,"o":"m 400 1221 l 574 1221 l 675 1040 l 568 1040 l 475 1139 l 356 1040 l 249 1040 l 400 1221 m 46 133 l 142 840 l 293 972 l 614 972 l 713 815 l 640 699 l 556 699 l 574 776 l 456 871 l 313 782 l 236 219 l 369 92 l 511 176 l 536 275 l 610 275 l 643 146 l 500 0 l 161 0 l 46 133 z "},"Ċ":{"ha":719,"x_min":46,"x_max":713,"o":"m 444 1033 l 369 1093 l 382 1186 l 469 1221 l 544 1161 l 532 1069 l 444 1033 m 46 133 l 142 840 l 293 972 l 614 972 l 713 815 l 640 699 l 556 699 l 574 776 l 456 871 l 313 782 l 236 219 l 369 92 l 511 176 l 536 275 l 610 275 l 643 146 l 500 0 l 161 0 l 46 133 z "},"D":{"ha":790,"x_min":46,"x_max":761,"o":"m 46 0 l 178 972 l 288 972 l 344 918 l 406 972 l 632 972 l 761 822 l 669 147 l 503 0 l 288 0 l 232 64 l 224 0 l 46 0 m 336 799 l 249 178 l 331 178 l 386 114 l 519 233 l 588 733 l 472 868 l 336 799 z "},"Ð":{"ha":790,"x_min":7,"x_max":761,"o":"m 632 972 l 761 822 l 669 147 l 503 0 l 288 0 l 232 64 l 224 0 l 46 0 l 103 424 l 7 424 l 28 576 l 124 576 l 178 972 l 288 972 l 344 918 l 406 972 l 632 972 m 519 233 l 588 733 l 472 868 l 336 799 l 304 576 l 435 576 l 414 424 l 283 424 l 249 178 l 331 178 l 386 114 l 519 233 z "},"Ď":{"ha":790,"x_min":46,"x_max":761,"o":"m 431 1042 l 329 1222 l 436 1222 l 528 1124 l 649 1222 l 756 1222 l 604 1042 l 431 1042 m 46 0 l 178 972 l 288 972 l 344 918 l 406 972 l 632 972 l 761 822 l 669 147 l 503 0 l 288 0 l 232 64 l 224 0 l 46 0 m 386 114 l 519 233 l 588 733 l 472 868 l 336 799 l 249 178 l 331 178 l 386 114 z "},"Đ":{"ha":790,"x_min":7,"x_max":761,"o":"m 632 972 l 761 822 l 669 147 l 503 0 l 288 0 l 232 64 l 224 0 l 46 0 l 103 424 l 7 424 l 28 576 l 124 576 l 178 972 l 288 972 l 344 918 l 406 972 l 632 972 m 519 233 l 588 733 l 472 868 l 336 799 l 304 576 l 435 576 l 414 424 l 283 424 l 249 178 l 331 178 l 386 114 l 519 233 z "},"E":{"ha":719,"x_min":46,"x_max":713,"o":"m 46 133 l 142 840 l 293 972 l 614 972 l 713 815 l 675 601 l 443 432 l 265 432 l 236 219 l 369 92 l 511 176 l 536 275 l 610 275 l 643 146 l 500 0 l 161 0 l 46 133 m 313 782 l 282 546 l 414 601 l 476 601 l 576 725 l 485 890 l 313 782 z "},"É":{"ha":740,"x_min":46,"x_max":746,"o":"m 571 1221 l 746 1219 l 526 1040 l 419 1040 l 571 1221 m 46 133 l 142 840 l 293 972 l 614 972 l 713 815 l 675 601 l 443 432 l 265 432 l 236 219 l 369 92 l 511 176 l 536 275 l 610 275 l 643 146 l 500 0 l 161 0 l 46 133 m 282 546 l 414 601 l 476 601 l 576 725 l 485 890 l 313 782 l 282 546 z "},"Ĕ":{"ha":708,"x_min":46,"x_max":713,"o":"m 460 1039 l 328 1122 l 340 1203 l 413 1203 l 407 1163 l 471 1122 l 547 1163 l 553 1203 l 626 1203 l 614 1121 l 460 1039 m 46 133 l 142 840 l 293 972 l 614 972 l 713 815 l 675 601 l 443 432 l 265 432 l 236 219 l 369 92 l 511 176 l 536 275 l 610 275 l 643 146 l 500 0 l 161 0 l 46 133 m 282 546 l 414 601 l 476 601 l 576 725 l 485 890 l 313 782 l 282 546 z "},"Ě":{"ha":708,"x_min":46,"x_max":713,"o":"m 367 1042 l 265 1222 l 372 1222 l 464 1124 l 585 1222 l 692 1222 l 540 1042 l 367 1042 m 46 133 l 142 840 l 293 972 l 614 972 l 713 815 l 675 601 l 443 432 l 265 432 l 236 219 l 369 92 l 511 176 l 536 275 l 610 275 l 643 146 l 500 0 l 161 0 l 46 133 m 282 546 l 414 601 l 476 601 l 576 725 l 485 890 l 313 782 l 282 546 z "},"Ê":{"ha":708,"x_min":46,"x_max":713,"o":"m 422 1221 l 596 1221 l 697 1040 l 590 1040 l 497 1139 l 378 1040 l 271 1040 l 422 1221 m 46 133 l 142 840 l 293 972 l 614 972 l 713 815 l 675 601 l 443 432 l 265 432 l 236 219 l 369 92 l 511 176 l 536 275 l 610 275 l 643 146 l 500 0 l 161 0 l 46 133 m 282 546 l 414 601 l 476 601 l 576 725 l 485 890 l 313 782 l 282 546 z "},"Ë":{"ha":708,"x_min":46,"x_max":713,"o":"m 365 1035 l 290 1094 l 303 1188 l 390 1222 l 465 1163 l 453 1071 l 365 1035 m 583 1035 l 508 1094 l 521 1188 l 608 1222 l 683 1163 l 671 1071 l 583 1035 m 46 133 l 142 840 l 293 972 l 614 972 l 713 815 l 675 601 l 443 432 l 265 432 l 236 219 l 369 92 l 511 176 l 536 275 l 610 275 l 643 146 l 500 0 l 161 0 l 46 133 m 282 546 l 414 601 l 476 601 l 576 725 l 485 890 l 313 782 l 282 546 z "},"Ė":{"ha":708,"x_min":46,"x_max":713,"o":"m 451 1033 l 376 1093 l 389 1186 l 476 1221 l 551 1161 l 539 1069 l 451 1033 m 46 133 l 142 840 l 293 972 l 614 972 l 713 815 l 675 601 l 443 432 l 265 432 l 236 219 l 369 92 l 511 176 l 536 275 l 610 275 l 643 146 l 500 0 l 161 0 l 46 133 m 313 782 l 282 546 l 414 601 l 476 601 l 576 725 l 485 890 l 313 782 z "},"È":{"ha":708,"x_min":46,"x_max":713,"o":"m 447 1221 l 549 1040 l 442 1040 l 272 1219 l 447 1221 m 46 133 l 142 840 l 293 972 l 614 972 l 713 815 l 675 601 l 443 432 l 265 432 l 236 219 l 369 92 l 511 176 l 536 275 l 610 275 l 643 146 l 500 0 l 161 0 l 46 133 m 282 546 l 414 601 l 476 601 l 576 725 l 485 890 l 313 782 l 282 546 z "},"Ē":{"ha":708,"x_min":46,"x_max":713,"o":"m 271 1067 l 286 1179 l 678 1179 l 663 1067 l 271 1067 m 46 133 l 142 840 l 293 972 l 614 972 l 713 815 l 675 601 l 443 432 l 265 432 l 236 219 l 369 92 l 511 176 l 536 275 l 610 275 l 643 146 l 500 0 l 161 0 l 46 133 m 313 782 l 282 546 l 414 601 l 476 601 l 576 725 l 485 890 l 313 782 z "},"Ę":{"ha":708,"x_min":46,"x_max":735,"o":"m 46 133 l 142 840 l 293 972 l 614 972 l 713 815 l 675 601 l 443 432 l 265 432 l 236 219 l 369 92 l 511 176 l 536 275 l 610 275 l 643 146 l 500 0 l 161 0 l 46 133 m 282 546 l 414 601 l 476 601 l 576 725 l 485 890 l 313 782 l 282 546 m 443 -278 l 376 -131 l 471 -46 l 542 -46 l 574 -83 l 504 -142 l 568 -218 l 669 -147 l 735 -147 l 656 -278 l 443 -278 z "},"F":{"ha":686,"x_min":46,"x_max":714,"o":"m 174 911 l 254 972 l 714 972 l 693 821 l 289 819 l 331 758 l 303 558 l 615 558 l 592 407 l 232 406 l 274 344 l 225 0 l 46 0 l 174 911 z "},"G":{"ha":719,"x_min":46,"x_max":713,"o":"m 142 840 l 293 972 l 614 972 l 713 815 l 640 699 l 556 699 l 574 776 l 456 871 l 313 782 l 235 217 l 319 106 l 467 175 l 489 324 l 385 324 l 406 476 l 674 476 l 625 132 l 464 0 l 160 0 l 46 132 l 142 840 z "},"Ğ":{"ha":719,"x_min":46,"x_max":713,"o":"m 410 1203 l 404 1163 l 468 1122 l 544 1163 l 550 1203 l 624 1203 l 611 1121 l 457 1039 l 325 1122 l 338 1203 l 410 1203 m 160 0 l 46 132 l 142 840 l 293 972 l 614 972 l 713 815 l 640 699 l 556 699 l 574 776 l 456 871 l 313 782 l 235 217 l 319 106 l 467 175 l 489 324 l 385 324 l 406 476 l 674 476 l 625 132 l 464 0 l 160 0 z "},"Ĝ":{"ha":719,"x_min":46,"x_max":713,"o":"m 394 1221 l 568 1221 l 669 1040 l 563 1040 l 469 1139 l 350 1040 l 243 1040 l 394 1221 m 160 0 l 46 132 l 142 840 l 293 972 l 614 972 l 713 815 l 640 699 l 556 699 l 574 776 l 456 871 l 313 782 l 235 217 l 319 106 l 467 175 l 489 324 l 385 324 l 406 476 l 674 476 l 625 132 l 464 0 l 160 0 z "},"Ģ":{"ha":719,"x_min":46,"x_max":713,"o":"m 160 0 l 46 132 l 142 840 l 293 972 l 614 972 l 713 815 l 640 699 l 556 699 l 574 776 l 456 871 l 313 782 l 235 217 l 319 106 l 467 175 l 489 324 l 385 324 l 406 476 l 674 476 l 625 132 l 464 0 l 160 0 m 151 -354 l 242 -92 l 394 -92 l 365 -179 l 228 -354 l 151 -354 z "},"Ġ":{"ha":719,"x_min":46,"x_max":713,"o":"m 449 1033 l 374 1093 l 386 1186 l 474 1221 l 549 1161 l 536 1069 l 449 1033 m 142 840 l 293 972 l 614 972 l 713 815 l 640 699 l 556 699 l 574 776 l 456 871 l 313 782 l 235 217 l 319 106 l 467 175 l 489 324 l 385 324 l 406 476 l 674 476 l 625 132 l 464 0 l 160 0 l 46 132 l 142 840 z "},"H":{"ha":718,"x_min":46,"x_max":707,"o":"m 46 0 l 178 972 l 269 972 l 333 911 l 286 558 l 542 558 l 504 611 l 553 972 l 643 972 l 707 911 l 583 0 l 419 0 l 469 358 l 518 407 l 265 407 l 210 0 l 46 0 z "},"Ħ":{"ha":760,"x_min":17,"x_max":849,"o":"m 849 833 l 833 717 l 681 717 l 583 0 l 419 0 l 469 358 l 518 407 l 265 407 l 210 0 l 46 0 l 143 717 l 17 717 l 31 833 l 160 833 l 178 972 l 269 972 l 333 911 l 322 833 l 535 833 l 553 972 l 643 972 l 707 911 l 696 833 l 849 833 m 542 558 l 504 611 l 518 717 l 307 717 l 286 558 l 542 558 z "},"Ĥ":{"ha":718,"x_min":46,"x_max":707,"o":"m 385 1221 l 558 1221 l 660 1040 l 553 1040 l 460 1139 l 340 1040 l 233 1040 l 385 1221 m 46 0 l 178 972 l 269 972 l 333 911 l 286 558 l 542 558 l 504 611 l 553 972 l 643 972 l 707 911 l 583 0 l 419 0 l 469 358 l 518 407 l 265 407 l 210 0 l 46 0 z "},"I":{"ha":371,"x_min":46,"x_max":360,"o":"m 46 0 l 115 490 l 132 618 l 144 707 l 158 796 l 251 972 l 360 972 l 292 490 l 224 0 l 46 0 z "},"Í":{"ha":371,"x_min":46,"x_max":599,"o":"m 424 1221 l 599 1219 l 379 1040 l 272 1040 l 424 1221 m 46 0 l 115 490 l 132 618 l 144 707 l 158 796 l 251 972 l 360 972 l 292 490 l 224 0 l 46 0 z "},"Ĭ":{"ha":371,"x_min":46,"x_max":476,"o":"m 178 1122 l 190 1203 l 263 1203 l 257 1163 l 321 1122 l 397 1163 l 403 1203 l 476 1203 l 464 1121 l 310 1039 l 178 1122 m 46 0 l 115 490 l 132 618 l 144 707 l 158 796 l 251 972 l 360 972 l 292 490 l 224 0 l 46 0 z "},"Î":{"ha":371,"x_min":46,"x_max":540,"o":"m 265 1221 l 439 1221 l 540 1040 l 433 1040 l 340 1139 l 221 1040 l 114 1040 l 265 1221 m 46 0 l 115 490 l 132 618 l 144 707 l 158 796 l 251 972 l 360 972 l 292 490 l 224 0 l 46 0 z "},"Ï":{"ha":371,"x_min":46,"x_max":526,"o":"m 208 1035 l 133 1094 l 146 1188 l 233 1222 l 308 1163 l 296 1071 l 208 1035 m 426 1035 l 351 1094 l 364 1188 l 451 1222 l 526 1163 l 514 1071 l 426 1035 m 46 0 l 115 490 l 132 618 l 144 707 l 158 796 l 251 972 l 360 972 l 292 490 l 224 0 l 46 0 z "},"İ":{"ha":371,"x_min":46,"x_max":408,"o":"m 308 1033 l 233 1093 l 246 1186 l 333 1221 l 408 1161 l 396 1069 l 308 1033 m 46 0 l 115 490 l 132 618 l 144 707 l 158 796 l 251 972 l 360 972 l 292 490 l 224 0 l 46 0 z "},"Ì":{"ha":371,"x_min":46,"x_max":360,"o":"m 78 1219 l 253 1221 l 354 1040 l 247 1040 l 78 1219 m 46 0 l 115 490 l 132 618 l 144 707 l 158 796 l 251 972 l 360 972 l 292 490 l 224 0 l 46 0 z "},"Ī":{"ha":371,"x_min":46,"x_max":526,"o":"m 119 1067 l 135 1179 l 526 1179 l 511 1067 l 119 1067 m 46 0 l 115 490 l 132 618 l 144 707 l 158 796 l 251 972 l 360 972 l 292 490 l 224 0 l 46 0 z "},"Į":{"ha":371,"x_min":7,"x_max":365,"o":"m 46 0 l 115 490 l 132 618 l 144 707 l 158 796 l 251 972 l 360 972 l 292 490 l 224 0 l 46 0 m 286 -279 l 74 -279 l 7 -132 l 101 -47 l 172 -47 l 204 -85 l 135 -143 l 199 -219 l 300 -149 l 365 -149 l 286 -279 z "},"Ĩ":{"ha":371,"x_min":46,"x_max":532,"o":"m 142 1163 l 250 1229 l 422 1138 l 461 1219 l 532 1219 l 515 1096 l 407 1029 l 222 1128 l 194 1039 l 124 1039 l 142 1163 m 46 0 l 115 490 l 132 618 l 144 707 l 158 796 l 251 972 l 360 972 l 292 490 l 224 0 l 46 0 z "},"J":{"ha":589,"x_min":-18,"x_max":585,"o":"m 92 0 l -18 156 l 53 285 l 126 285 l 124 186 l 233 106 l 300 164 l 354 568 l 361 618 l 386 796 l 478 972 l 585 972 l 531 568 l 472 142 l 342 0 l 92 0 z "},"Ĵ":{"ha":589,"x_min":-18,"x_max":753,"o":"m 478 1221 l 651 1221 l 753 1040 l 646 1040 l 553 1139 l 433 1040 l 326 1040 l 478 1221 m 92 0 l -18 156 l 53 285 l 126 285 l 124 186 l 233 106 l 300 164 l 354 568 l 361 618 l 386 796 l 478 972 l 585 972 l 531 568 l 472 142 l 342 0 l 92 0 z "},"K":{"ha":647,"x_min":46,"x_max":675,"o":"m 46 0 l 183 972 l 365 972 l 306 588 l 531 972 l 644 972 l 675 849 l 347 467 l 449 467 l 606 0 l 400 0 l 272 381 l 211 0 l 46 0 z "},"Ķ":{"ha":647,"x_min":46,"x_max":675,"o":"m 46 0 l 183 972 l 365 972 l 306 588 l 531 972 l 644 972 l 675 849 l 347 467 l 449 467 l 606 0 l 400 0 l 272 381 l 211 0 l 46 0 m 131 -354 l 221 -92 l 374 -92 l 344 -179 l 207 -354 l 131 -354 z "},"L":{"ha":611,"x_min":46,"x_max":557,"o":"m 46 0 l 158 796 l 235 972 l 364 972 l 229 151 l 557 151 l 533 0 l 46 0 z "},"Ĺ":{"ha":628,"x_min":46,"x_max":574,"o":"m 247 1040 l 399 1221 l 574 1219 l 354 1040 l 247 1040 m 46 0 l 158 796 l 235 972 l 364 972 l 229 151 l 557 151 l 533 0 l 46 0 z "},"Ľ":{"ha":611,"x_min":46,"x_max":603,"o":"m 46 0 l 158 796 l 235 972 l 364 972 l 229 151 l 557 151 l 533 0 l 46 0 m 404 628 l 454 972 l 603 972 l 579 803 l 481 628 l 404 628 z "},"Ļ":{"ha":611,"x_min":46,"x_max":557,"o":"m 46 0 l 158 796 l 235 972 l 364 972 l 229 151 l 557 151 l 533 0 l 46 0 m 113 -354 l 203 -92 l 356 -92 l 326 -179 l 189 -354 l 113 -354 z "},"Ŀ":{"ha":611,"x_min":46,"x_max":610,"o":"m 46 0 l 158 796 l 235 972 l 364 972 l 229 151 l 557 151 l 533 0 l 46 0 m 461 433 l 351 521 l 371 658 l 500 710 l 610 622 l 590 485 l 461 433 z "},"Ł":{"ha":642,"x_min":-31,"x_max":588,"o":"m 588 151 l 564 0 l 76 0 l 132 396 l 24 354 l -31 486 l 156 557 l 189 796 l 265 972 l 394 972 l 338 628 l 458 674 l 513 542 l 311 464 l 260 151 l 588 151 z "},"M":{"ha":875,"x_min":46,"x_max":864,"o":"m 46 0 l 179 972 l 276 972 l 426 725 l 468 493 l 721 972 l 864 972 l 725 0 l 582 0 l 669 618 l 544 389 l 456 299 l 401 299 l 342 389 l 286 618 l 200 0 l 46 0 z "},"N":{"ha":800,"x_min":46,"x_max":789,"o":"m 46 0 l 183 972 l 265 972 l 421 725 l 526 225 l 632 972 l 789 972 l 651 0 l 494 0 l 404 142 l 286 613 l 199 0 l 46 0 z "},"Ń":{"ha":800,"x_min":46,"x_max":789,"o":"m 544 1221 l 719 1219 l 500 1040 l 393 1040 l 544 1221 m 46 0 l 183 972 l 265 972 l 421 725 l 526 225 l 632 972 l 789 972 l 651 0 l 494 0 l 404 142 l 286 613 l 199 0 l 46 0 z "},"Ň":{"ha":800,"x_min":46,"x_max":789,"o":"m 372 1040 l 271 1221 l 378 1221 l 469 1122 l 590 1221 l 697 1221 l 546 1040 l 372 1040 m 46 0 l 183 972 l 265 972 l 421 725 l 526 225 l 632 972 l 789 972 l 651 0 l 494 0 l 404 142 l 286 613 l 199 0 l 46 0 z "},"Ņ":{"ha":800,"x_min":46,"x_max":789,"o":"m 46 0 l 183 972 l 265 972 l 421 725 l 526 225 l 632 972 l 789 972 l 651 0 l 494 0 l 404 142 l 286 613 l 199 0 l 46 0 m 233 -354 l 324 -92 l 476 -92 l 447 -179 l 310 -354 l 233 -354 z "},"Ŋ":{"ha":801,"x_min":46,"x_max":790,"o":"m 46 0 l 183 972 l 265 972 l 421 725 l 526 225 l 632 972 l 790 972 l 626 -171 l 517 -278 l 342 -278 l 247 -129 l 300 -50 l 422 -161 l 479 -111 l 494 0 l 404 142 l 286 613 l 199 0 l 46 0 z "},"Ñ":{"ha":800,"x_min":46,"x_max":789,"o":"m 306 1163 l 414 1229 l 586 1138 l 625 1219 l 696 1219 l 679 1096 l 571 1029 l 386 1128 l 358 1039 l 288 1039 l 306 1163 m 46 0 l 183 972 l 265 972 l 421 725 l 526 225 l 632 972 l 789 972 l 651 0 l 494 0 l 404 142 l 286 613 l 199 0 l 46 0 z "},"O":{"ha":771,"x_min":58,"x_max":750,"o":"m 607 972 l 750 821 l 660 142 l 486 0 l 193 0 l 58 157 l 153 831 l 315 972 l 607 972 m 579 758 l 449 871 l 325 808 l 244 214 l 365 101 l 497 163 l 579 758 z "},"Ó":{"ha":771,"x_min":58,"x_max":750,"o":"m 571 1221 l 746 1219 l 526 1040 l 419 1040 l 571 1221 m 193 0 l 58 157 l 153 831 l 315 972 l 607 972 l 750 821 l 660 142 l 486 0 l 193 0 m 365 101 l 497 163 l 579 758 l 449 871 l 325 808 l 244 214 l 365 101 z "},"Ŏ":{"ha":771,"x_min":58,"x_max":750,"o":"m 315 1122 l 328 1203 l 400 1203 l 394 1163 l 458 1122 l 535 1163 l 540 1203 l 614 1203 l 601 1121 l 447 1039 l 315 1122 m 193 0 l 58 157 l 153 831 l 315 972 l 607 972 l 750 821 l 660 142 l 486 0 l 193 0 m 365 101 l 497 163 l 579 758 l 449 871 l 325 808 l 244 214 l 365 101 z "},"Ô":{"ha":771,"x_min":58,"x_max":750,"o":"m 408 1221 l 582 1221 l 683 1040 l 576 1040 l 483 1139 l 364 1040 l 257 1040 l 408 1221 m 193 0 l 58 157 l 153 831 l 315 972 l 607 972 l 750 821 l 660 142 l 486 0 l 193 0 m 365 101 l 497 163 l 579 758 l 449 871 l 325 808 l 244 214 l 365 101 z "},"Ö":{"ha":769,"x_min":58,"x_max":750,"o":"m 351 1035 l 276 1094 l 289 1188 l 376 1222 l 451 1163 l 439 1071 l 351 1035 m 569 1035 l 494 1094 l 507 1188 l 594 1222 l 669 1163 l 657 1071 l 569 1035 m 193 0 l 58 157 l 153 831 l 315 972 l 607 972 l 750 821 l 660 142 l 486 0 l 193 0 m 365 101 l 497 163 l 579 758 l 449 871 l 325 808 l 244 214 l 365 101 z "},"Ò":{"ha":771,"x_min":58,"x_max":750,"o":"m 244 1219 l 419 1221 l 521 1040 l 414 1040 l 244 1219 m 193 0 l 58 157 l 153 831 l 315 972 l 607 972 l 750 821 l 660 142 l 486 0 l 193 0 m 365 101 l 497 163 l 579 758 l 449 871 l 325 808 l 244 214 l 365 101 z "},"Ő":{"ha":771,"x_min":58,"x_max":842,"o":"m 464 1221 l 640 1219 l 421 1040 l 314 1040 l 464 1221 m 667 1221 l 842 1219 l 622 1040 l 515 1040 l 667 1221 m 193 0 l 58 157 l 153 831 l 315 972 l 607 972 l 750 821 l 660 142 l 486 0 l 193 0 m 365 101 l 497 163 l 579 758 l 449 871 l 325 808 l 244 214 l 365 101 z "},"Ō":{"ha":771,"x_min":58,"x_max":750,"o":"m 272 1067 l 288 1179 l 679 1179 l 664 1067 l 272 1067 m 607 972 l 750 821 l 660 142 l 486 0 l 193 0 l 58 157 l 153 831 l 315 972 l 607 972 m 579 758 l 449 871 l 325 808 l 244 214 l 365 101 l 497 163 l 579 758 z "},"Ø":{"ha":801,"x_min":22,"x_max":779,"o":"m 779 908 l 731 842 l 750 821 l 660 142 l 486 0 l 193 0 l 150 50 l 103 -15 l 22 71 l 72 140 l 58 157 l 153 831 l 315 972 l 607 972 l 650 928 l 699 994 l 779 908 m 325 808 l 271 411 l 546 786 l 449 871 l 325 808 m 497 163 l 558 607 l 260 199 l 365 101 l 497 163 z "},"Õ":{"ha":771,"x_min":58,"x_max":750,"o":"m 297 1164 l 406 1231 l 578 1139 l 617 1221 l 688 1221 l 671 1097 l 563 1031 l 378 1129 l 350 1040 l 279 1040 l 297 1164 m 607 972 l 750 821 l 660 142 l 486 0 l 193 0 l 58 157 l 153 831 l 315 972 l 607 972 m 579 758 l 449 871 l 325 808 l 244 214 l 365 101 l 497 163 l 579 758 z "},"Œ":{"ha":1117,"x_min":58,"x_max":1160,"o":"m 193 0 l 58 157 l 153 831 l 315 972 l 607 972 l 667 908 l 740 972 l 1061 972 l 1160 815 l 1122 601 l 890 432 l 713 432 l 683 219 l 817 92 l 958 176 l 983 275 l 1057 275 l 1090 146 l 947 0 l 608 0 l 558 58 l 486 0 l 193 0 m 760 782 l 729 546 l 861 601 l 924 601 l 1024 725 l 932 890 l 760 782 m 244 214 l 365 101 l 497 163 l 579 758 l 449 871 l 325 808 l 244 214 z "},"P":{"ha":728,"x_min":46,"x_max":728,"o":"m 46 0 l 183 972 l 272 972 l 336 911 l 406 972 l 593 972 l 728 815 l 668 396 l 507 254 l 294 254 l 251 304 l 208 0 l 46 0 m 319 793 l 269 432 l 335 432 l 390 368 l 501 468 l 540 742 l 433 868 l 319 793 z "},"Þ":{"ha":697,"x_min":-8,"x_max":660,"o":"m -8 0 l 129 972 l 196 972 l 274 847 l 265 786 l 333 846 l 521 846 l 660 689 l 600 269 l 438 128 l 275 128 l 186 231 l 154 0 l -8 0 m 247 663 l 199 315 l 285 315 l 343 250 l 447 343 l 486 615 l 390 744 l 247 663 z "},"Q":{"ha":771,"x_min":58,"x_max":750,"o":"m 193 0 l 58 157 l 153 831 l 315 972 l 607 972 l 750 821 l 660 142 l 486 0 l 193 0 m 579 758 l 449 871 l 325 808 l 244 214 l 365 101 l 497 163 l 579 758 m 419 -203 l 296 -61 l 389 -46 l 553 -132 l 419 -203 z "},"R":{"ha":728,"x_min":46,"x_max":728,"o":"m 46 0 l 183 972 l 272 972 l 336 911 l 406 972 l 593 972 l 728 815 l 668 396 l 501 254 l 586 0 l 417 0 l 332 254 l 256 336 l 208 0 l 46 0 m 319 793 l 271 442 l 344 442 l 400 378 l 501 468 l 540 742 l 433 868 l 319 793 z "},"Ŕ":{"ha":728,"x_min":46,"x_max":728,"o":"m 518 1221 l 693 1219 l 474 1040 l 367 1040 l 518 1221 m 46 0 l 183 972 l 272 972 l 336 911 l 406 972 l 593 972 l 728 815 l 668 396 l 501 254 l 586 0 l 417 0 l 332 254 l 256 336 l 208 0 l 46 0 m 400 378 l 501 468 l 540 742 l 433 868 l 319 793 l 271 442 l 344 442 l 400 378 z "},"Ř":{"ha":738,"x_min":46,"x_max":738,"o":"m 413 1042 l 311 1222 l 418 1222 l 510 1124 l 631 1222 l 738 1222 l 586 1042 l 413 1042 m 46 0 l 183 972 l 272 972 l 336 911 l 406 972 l 593 972 l 728 815 l 668 396 l 501 254 l 586 0 l 417 0 l 332 254 l 256 336 l 208 0 l 46 0 m 400 378 l 501 468 l 540 742 l 433 868 l 319 793 l 271 442 l 344 442 l 400 378 z "},"Ŗ":{"ha":728,"x_min":46,"x_max":728,"o":"m 46 0 l 183 972 l 272 972 l 336 911 l 406 972 l 593 972 l 728 815 l 668 396 l 501 254 l 586 0 l 417 0 l 332 254 l 256 336 l 208 0 l 46 0 m 400 378 l 501 468 l 540 742 l 433 868 l 319 793 l 271 442 l 344 442 l 400 378 m 122 -354 l 213 -92 l 365 -92 l 336 -179 l 199 -354 l 122 -354 z "},"S":{"ha":724,"x_min":47,"x_max":703,"o":"m 89 0 l 47 156 l 147 272 l 232 272 l 203 154 l 282 68 l 471 200 l 494 379 l 125 472 l 78 526 l 119 832 l 279 972 l 660 972 l 703 817 l 603 700 l 518 700 l 547 818 l 469 894 l 319 800 l 283 526 l 410 574 l 626 513 l 674 458 l 631 140 l 469 0 l 89 0 z "},"Ś":{"ha":724,"x_min":47,"x_max":738,"o":"m 563 1221 l 738 1219 l 518 1040 l 411 1040 l 563 1221 m 89 0 l 47 156 l 147 272 l 232 272 l 203 154 l 282 68 l 471 200 l 494 379 l 125 472 l 78 526 l 119 832 l 279 972 l 660 972 l 703 817 l 603 700 l 518 700 l 547 818 l 469 894 l 319 800 l 283 526 l 410 574 l 626 513 l 674 458 l 631 140 l 469 0 l 89 0 z "},"Š":{"ha":724,"x_min":47,"x_max":710,"o":"m 385 1042 l 283 1222 l 390 1222 l 482 1124 l 603 1222 l 710 1222 l 558 1042 l 385 1042 m 89 0 l 47 156 l 147 272 l 232 272 l 203 154 l 282 68 l 471 200 l 494 379 l 125 472 l 78 526 l 119 832 l 279 972 l 660 972 l 703 817 l 603 700 l 518 700 l 547 818 l 469 894 l 319 800 l 283 526 l 410 574 l 626 513 l 674 458 l 631 140 l 469 0 l 89 0 z "},"Ş":{"ha":724,"x_min":47,"x_max":703,"o":"m 89 0 l 47 156 l 147 272 l 232 272 l 203 154 l 282 68 l 471 200 l 494 379 l 125 472 l 78 526 l 119 832 l 279 972 l 660 972 l 703 817 l 603 700 l 518 700 l 547 818 l 469 894 l 319 800 l 283 526 l 410 574 l 626 513 l 674 458 l 631 140 l 469 0 l 89 0 m 350 -46 l 421 -131 l 313 -278 l 100 -278 l 57 -147 l 122 -147 l 204 -218 l 290 -142 l 236 -83 l 279 -46 l 350 -46 z "},"Ŝ":{"ha":724,"x_min":47,"x_max":703,"o":"m 408 1221 l 582 1221 l 683 1040 l 576 1040 l 483 1139 l 364 1040 l 257 1040 l 408 1221 m 89 0 l 47 156 l 147 272 l 232 272 l 203 154 l 282 68 l 471 200 l 494 379 l 125 472 l 78 526 l 119 832 l 279 972 l 660 972 l 703 817 l 603 700 l 518 700 l 547 818 l 469 894 l 319 800 l 283 526 l 410 574 l 626 513 l 674 458 l 631 140 l 469 0 l 89 0 z "},"Ș":{"ha":724,"x_min":47,"x_max":703,"o":"m 89 0 l 47 156 l 147 272 l 232 272 l 203 154 l 282 68 l 471 200 l 494 379 l 125 472 l 78 526 l 119 832 l 279 972 l 660 972 l 703 817 l 603 700 l 518 700 l 547 818 l 469 894 l 319 800 l 283 526 l 410 574 l 626 513 l 674 458 l 631 140 l 469 0 l 89 0 m 110 -354 l 200 -92 l 353 -92 l 324 -179 l 186 -354 l 110 -354 z "},"T":{"ha":615,"x_min":61,"x_max":693,"o":"m 169 0 l 274 744 l 321 793 l 158 793 l 61 904 l 71 972 l 693 972 l 667 793 l 446 793 l 335 0 l 169 0 z "},"Ŧ":{"ha":615,"x_min":61,"x_max":693,"o":"m 667 793 l 446 793 l 404 500 l 572 500 l 556 390 l 389 390 l 335 0 l 169 0 l 224 390 l 61 390 l 78 500 l 239 500 l 274 744 l 321 793 l 158 793 l 61 904 l 71 972 l 693 972 l 667 793 z "},"Ť":{"ha":615,"x_min":61,"x_max":693,"o":"m 303 1042 l 201 1222 l 308 1222 l 400 1124 l 521 1222 l 628 1222 l 476 1042 l 303 1042 m 169 0 l 274 744 l 321 793 l 158 793 l 61 904 l 71 972 l 693 972 l 667 793 l 446 793 l 335 0 l 169 0 z "},"Ţ":{"ha":615,"x_min":-11,"x_max":693,"o":"m 169 0 l 274 744 l 321 793 l 158 793 l 61 904 l 71 972 l 693 972 l 667 793 l 446 793 l 335 0 l 169 0 m 32 -278 l -11 -147 l 54 -147 l 136 -218 l 222 -142 l 168 -83 l 211 -46 l 282 -46 l 353 -131 l 244 -278 l 32 -278 z "},"U":{"ha":785,"x_min":56,"x_max":771,"o":"m 193 0 l 56 154 l 175 972 l 347 972 l 243 206 l 358 101 l 499 171 l 607 972 l 771 972 l 658 147 l 481 0 l 193 0 z "},"Ú":{"ha":783,"x_min":56,"x_max":771,"o":"m 553 1221 l 728 1219 l 508 1040 l 401 1040 l 553 1221 m 193 0 l 56 154 l 175 972 l 347 972 l 243 206 l 358 101 l 499 171 l 607 972 l 771 972 l 658 147 l 481 0 l 193 0 z "},"Ŭ":{"ha":783,"x_min":56,"x_max":771,"o":"m 351 1203 l 424 1203 l 418 1163 l 482 1122 l 558 1163 l 564 1203 l 638 1203 l 625 1121 l 471 1039 l 339 1122 l 351 1203 m 193 0 l 56 154 l 175 972 l 347 972 l 243 206 l 358 101 l 499 171 l 607 972 l 771 972 l 658 147 l 481 0 l 193 0 z "},"Û":{"ha":783,"x_min":56,"x_max":771,"o":"m 418 1221 l 592 1221 l 693 1040 l 586 1040 l 493 1139 l 374 1040 l 267 1040 l 418 1221 m 193 0 l 56 154 l 175 972 l 347 972 l 243 206 l 358 101 l 499 171 l 607 972 l 771 972 l 658 147 l 481 0 l 193 0 z "},"Ü":{"ha":783,"x_min":56,"x_max":771,"o":"m 365 1035 l 290 1094 l 303 1188 l 390 1222 l 465 1163 l 453 1071 l 365 1035 m 583 1035 l 508 1094 l 521 1188 l 608 1222 l 683 1163 l 671 1071 l 583 1035 m 193 0 l 56 154 l 175 972 l 347 972 l 243 206 l 358 101 l 499 171 l 607 972 l 771 972 l 658 147 l 481 0 l 193 0 z "},"Ù":{"ha":783,"x_min":56,"x_max":771,"o":"m 268 1219 l 443 1221 l 544 1040 l 438 1040 l 268 1219 m 193 0 l 56 154 l 175 972 l 347 972 l 243 206 l 358 101 l 499 171 l 607 972 l 771 972 l 658 147 l 481 0 l 193 0 z "},"Ű":{"ha":783,"x_min":56,"x_max":849,"o":"m 471 1221 l 647 1219 l 428 1040 l 321 1040 l 471 1221 m 674 1221 l 849 1219 l 629 1040 l 522 1040 l 674 1221 m 193 0 l 56 154 l 175 972 l 347 972 l 243 206 l 358 101 l 499 171 l 607 972 l 771 972 l 658 147 l 481 0 l 193 0 z "},"Ū":{"ha":783,"x_min":56,"x_max":771,"o":"m 283 1067 l 299 1179 l 690 1179 l 675 1067 l 283 1067 m 193 0 l 56 154 l 175 972 l 347 972 l 243 206 l 358 101 l 499 171 l 607 972 l 771 972 l 658 147 l 481 0 l 193 0 z "},"Ų":{"ha":783,"x_min":56,"x_max":771,"o":"m 193 0 l 56 154 l 175 972 l 347 972 l 243 206 l 358 101 l 499 171 l 607 972 l 771 972 l 658 147 l 481 0 l 193 0 m 356 -278 l 289 -131 l 383 -46 l 454 -46 l 486 -83 l 417 -142 l 481 -218 l 582 -147 l 647 -147 l 568 -278 l 356 -278 z "},"Ů":{"ha":783,"x_min":56,"x_max":771,"o":"m 371 1282 l 525 1365 l 657 1281 l 646 1201 l 633 1118 l 479 1036 l 347 1119 l 360 1201 l 371 1282 m 438 1240 l 426 1160 l 490 1119 l 567 1160 l 572 1201 l 578 1240 l 514 1281 l 438 1240 m 193 0 l 56 154 l 175 972 l 347 972 l 243 206 l 358 101 l 499 171 l 607 972 l 771 972 l 658 147 l 481 0 l 193 0 z "},"Ũ":{"ha":783,"x_min":56,"x_max":771,"o":"m 306 1163 l 414 1229 l 586 1138 l 625 1219 l 696 1219 l 679 1096 l 571 1029 l 386 1128 l 358 1039 l 288 1039 l 306 1163 m 193 0 l 56 154 l 175 972 l 347 972 l 243 206 l 358 101 l 499 171 l 607 972 l 771 972 l 658 147 l 481 0 l 193 0 z "},"V":{"ha":649,"x_min":57,"x_max":735,"o":"m 267 0 l 181 142 l 57 972 l 142 972 l 264 725 l 333 246 l 572 972 l 735 972 l 415 0 l 267 0 z "},"W":{"ha":1011,"x_min":57,"x_max":1093,"o":"m 264 725 l 333 246 l 565 963 l 672 744 l 696 246 l 931 972 l 1093 972 l 774 0 l 590 0 l 568 457 l 419 0 l 267 0 l 181 142 l 57 972 l 142 972 l 264 725 z "},"Ẃ":{"ha":1011,"x_min":57,"x_max":1093,"o":"m 690 1221 l 865 1219 l 646 1040 l 539 1040 l 690 1221 m 264 725 l 333 246 l 565 963 l 672 744 l 696 246 l 931 972 l 1093 972 l 774 0 l 590 0 l 568 457 l 419 0 l 267 0 l 181 142 l 57 972 l 142 972 l 264 725 z "},"Ŵ":{"ha":1011,"x_min":57,"x_max":1093,"o":"m 529 1221 l 703 1221 l 804 1040 l 697 1040 l 604 1139 l 485 1040 l 378 1040 l 529 1221 m 264 725 l 333 246 l 565 963 l 672 744 l 696 246 l 931 972 l 1093 972 l 774 0 l 590 0 l 568 457 l 419 0 l 267 0 l 181 142 l 57 972 l 142 972 l 264 725 z "},"Ẅ":{"ha":1011,"x_min":57,"x_max":1093,"o":"m 463 1035 l 388 1094 l 400 1188 l 488 1222 l 563 1163 l 550 1071 l 463 1035 m 681 1035 l 606 1094 l 618 1188 l 706 1222 l 781 1163 l 768 1071 l 681 1035 m 264 725 l 333 246 l 565 963 l 672 744 l 696 246 l 931 972 l 1093 972 l 774 0 l 590 0 l 568 457 l 419 0 l 267 0 l 181 142 l 57 972 l 142 972 l 264 725 z "},"Ẁ":{"ha":1011,"x_min":57,"x_max":1093,"o":"m 551 1040 l 382 1219 l 557 1221 l 658 1040 l 551 1040 m 264 725 l 333 246 l 565 963 l 672 744 l 696 246 l 931 972 l 1093 972 l 774 0 l 590 0 l 568 457 l 419 0 l 267 0 l 181 142 l 57 972 l 142 972 l 264 725 z "},"X":{"ha":646,"x_min":-47,"x_max":710,"o":"m -47 0 l 218 450 l 260 426 l 78 972 l 275 972 l 392 622 l 415 788 l 525 972 l 710 972 l 432 501 l 600 0 l 403 0 l 307 288 l 138 0 l -47 0 z "},"Y":{"ha":651,"x_min":56,"x_max":733,"o":"m 272 796 l 361 454 l 571 972 l 733 972 l 340 0 l 178 0 l 290 278 l 218 358 l 56 972 l 140 972 l 272 796 z "},"Ý":{"ha":651,"x_min":56,"x_max":733,"o":"m 457 1221 l 632 1219 l 413 1040 l 306 1040 l 457 1221 m 272 796 l 361 454 l 571 972 l 733 972 l 340 0 l 178 0 l 290 278 l 218 358 l 56 972 l 140 972 l 272 796 z "},"Ŷ":{"ha":651,"x_min":56,"x_max":733,"o":"m 338 1221 l 511 1221 l 613 1040 l 506 1040 l 413 1139 l 293 1040 l 186 1040 l 338 1221 m 272 796 l 361 454 l 571 972 l 733 972 l 340 0 l 178 0 l 290 278 l 218 358 l 56 972 l 140 972 l 272 796 z "},"Ÿ":{"ha":651,"x_min":56,"x_max":733,"o":"m 281 1035 l 206 1094 l 218 1188 l 306 1222 l 381 1163 l 368 1071 l 281 1035 m 499 1035 l 424 1094 l 436 1188 l 524 1222 l 599 1163 l 586 1071 l 499 1035 m 272 796 l 361 454 l 571 972 l 733 972 l 340 0 l 178 0 l 290 278 l 218 358 l 56 972 l 140 972 l 272 796 z "},"Ỳ":{"ha":651,"x_min":56,"x_max":733,"o":"m 214 1219 l 389 1221 l 490 1040 l 383 1040 l 214 1219 m 272 796 l 361 454 l 571 972 l 733 972 l 340 0 l 178 0 l 290 278 l 218 358 l 56 972 l 140 972 l 272 796 z "},"Z":{"ha":647,"x_min":-17,"x_max":693,"o":"m -17 0 l 11 201 l 533 847 l 444 794 l 110 794 l 133 972 l 693 972 l 665 771 l 143 125 l 232 176 l 567 176 l 543 0 l -17 0 z "},"Ź":{"ha":647,"x_min":-17,"x_max":693,"o":"m 485 1221 l 660 1219 l 440 1040 l 333 1040 l 485 1221 m -17 0 l 11 201 l 533 847 l 444 794 l 110 794 l 133 972 l 693 972 l 665 771 l 143 125 l 232 176 l 567 176 l 543 0 l -17 0 z "},"Ž":{"ha":647,"x_min":-17,"x_max":693,"o":"m 338 1042 l 236 1222 l 343 1222 l 435 1124 l 556 1222 l 663 1222 l 511 1042 l 338 1042 m -17 0 l 11 201 l 533 847 l 444 794 l 110 794 l 133 972 l 693 972 l 665 771 l 143 125 l 232 176 l 567 176 l 543 0 l -17 0 z "},"Ż":{"ha":647,"x_min":-17,"x_max":693,"o":"m 404 1033 l 329 1093 l 342 1186 l 429 1221 l 504 1161 l 492 1069 l 404 1033 m -17 0 l 11 201 l 533 847 l 444 794 l 110 794 l 133 972 l 693 972 l 665 771 l 143 125 l 232 176 l 567 176 l 543 0 l -17 0 z "},"a":{"ha":718,"x_min":28,"x_max":676,"o":"m 150 -11 l 28 131 l 86 550 l 265 707 l 440 707 l 506 632 l 514 694 l 676 694 l 606 192 l 639 103 l 671 14 l 676 0 l 581 0 l 488 119 l 339 -11 l 150 -11 m 279 111 l 356 176 l 442 178 l 490 525 l 371 606 l 239 476 l 201 204 l 279 111 z "},"á":{"ha":718,"x_min":28,"x_max":676,"o":"m 310 767 l 461 947 l 636 946 l 417 767 l 310 767 m 150 -11 l 28 131 l 86 550 l 265 707 l 440 707 l 506 632 l 514 694 l 676 694 l 606 192 l 639 103 l 671 14 l 676 0 l 581 0 l 488 119 l 339 -11 l 150 -11 m 279 111 l 356 176 l 442 178 l 490 525 l 371 606 l 239 476 l 201 204 l 279 111 z "},"ă":{"ha":718,"x_min":28,"x_max":676,"o":"m 497 939 l 571 939 l 558 857 l 404 775 l 272 858 l 285 939 l 357 939 l 351 899 l 415 858 l 492 899 l 497 939 m 150 -11 l 28 131 l 86 550 l 265 707 l 440 707 l 506 632 l 514 694 l 676 694 l 606 192 l 639 103 l 671 14 l 676 0 l 581 0 l 488 119 l 339 -11 l 150 -11 m 279 111 l 356 176 l 442 178 l 490 525 l 371 606 l 239 476 l 201 204 l 279 111 z "},"â":{"ha":718,"x_min":28,"x_max":676,"o":"m 336 956 l 510 956 l 611 775 l 504 775 l 411 874 l 292 775 l 185 775 l 336 956 m 150 -11 l 28 131 l 86 550 l 265 707 l 440 707 l 506 632 l 514 694 l 676 694 l 606 192 l 639 103 l 671 14 l 676 0 l 581 0 l 488 119 l 339 -11 l 150 -11 m 279 111 l 356 176 l 442 178 l 490 525 l 371 606 l 239 476 l 201 204 l 279 111 z "},"ä":{"ha":718,"x_min":28,"x_max":676,"o":"m 290 763 l 215 822 l 228 915 l 315 950 l 390 890 l 378 799 l 290 763 m 508 763 l 433 822 l 446 915 l 533 950 l 608 890 l 596 799 l 508 763 m 150 -11 l 28 131 l 86 550 l 265 707 l 440 707 l 506 632 l 514 694 l 676 694 l 606 192 l 639 103 l 671 14 l 676 0 l 581 0 l 488 119 l 339 -11 l 150 -11 m 279 111 l 356 176 l 442 178 l 490 525 l 371 606 l 239 476 l 201 204 l 279 111 z "},"à":{"ha":718,"x_min":28,"x_max":676,"o":"m 389 767 l 219 946 l 394 947 l 496 767 l 389 767 m 150 -11 l 28 131 l 86 550 l 265 707 l 440 707 l 506 632 l 514 694 l 676 694 l 606 192 l 639 103 l 671 14 l 676 0 l 581 0 l 488 119 l 339 -11 l 150 -11 m 279 111 l 356 176 l 442 178 l 490 525 l 371 606 l 239 476 l 201 204 l 279 111 z "},"ā":{"ha":718,"x_min":28,"x_max":676,"o":"m 201 818 l 217 931 l 608 931 l 593 818 l 201 818 m 150 -11 l 28 131 l 86 550 l 265 707 l 440 707 l 506 632 l 514 694 l 676 694 l 606 192 l 639 103 l 671 14 l 676 0 l 581 0 l 488 119 l 339 -11 l 150 -11 m 279 111 l 356 176 l 442 178 l 490 525 l 371 606 l 239 476 l 201 204 l 279 111 z "},"ą":{"ha":718,"x_min":28,"x_max":676,"o":"m 150 -11 l 28 131 l 86 550 l 265 707 l 440 707 l 506 632 l 514 694 l 676 694 l 606 192 l 639 103 l 671 14 l 676 0 l 581 0 l 488 119 l 339 -11 l 150 -11 m 279 111 l 356 176 l 442 178 l 490 525 l 371 606 l 239 476 l 201 204 l 279 111 m 596 -278 l 383 -278 l 317 -131 l 411 -46 l 482 -46 l 514 -83 l 443 -142 l 508 -218 l 610 -147 l 675 -147 l 596 -278 z "},"å":{"ha":718,"x_min":28,"x_max":676,"o":"m 394 739 l 263 822 l 275 904 l 286 985 l 440 1068 l 572 983 l 561 904 l 549 821 l 394 739 m 406 822 l 482 863 l 488 904 l 493 943 l 429 983 l 353 943 l 342 863 l 406 822 m 150 -11 l 28 131 l 86 550 l 265 707 l 440 707 l 506 632 l 514 694 l 676 694 l 606 192 l 639 103 l 671 14 l 676 0 l 581 0 l 488 119 l 339 -11 l 150 -11 m 279 111 l 356 176 l 442 178 l 490 525 l 371 606 l 239 476 l 201 204 l 279 111 z "},"ã":{"ha":718,"x_min":28,"x_max":676,"o":"m 256 915 l 364 982 l 536 890 l 575 972 l 646 972 l 629 849 l 521 782 l 336 881 l 308 792 l 238 792 l 256 915 m 150 -11 l 28 131 l 86 550 l 265 707 l 440 707 l 506 632 l 514 694 l 676 694 l 606 192 l 639 103 l 671 14 l 676 0 l 581 0 l 488 119 l 339 -11 l 150 -11 m 279 111 l 356 176 l 442 178 l 490 525 l 371 606 l 239 476 l 201 204 l 279 111 z "},"æ":{"ha":968,"x_min":14,"x_max":947,"o":"m 31 258 l 210 415 l 408 415 l 425 532 l 292 640 l 189 554 l 115 597 l 197 708 l 478 707 l 529 647 l 600 708 l 851 708 l 947 574 l 917 403 l 725 264 l 565 264 l 551 157 l 671 57 l 774 143 l 847 100 l 765 -11 l 485 -10 l 417 69 l 325 -11 l 136 -11 l 14 131 l 31 258 m 601 535 l 578 357 l 686 403 l 738 403 l 821 504 l 751 629 l 601 535 m 240 283 l 149 188 l 226 69 l 374 163 l 396 326 l 288 283 l 240 283 z "},"b":{"ha":711,"x_min":28,"x_max":678,"o":"m 28 0 l 169 1003 l 333 1003 l 283 647 l 353 707 l 542 707 l 678 550 l 618 131 l 456 -11 l 294 -11 l 204 93 l 192 0 l 28 0 m 217 176 l 303 176 l 361 111 l 465 204 l 504 476 l 408 606 l 265 524 l 217 176 z "},"c":{"ha":572,"x_min":28,"x_max":565,"o":"m 150 -10 l 28 131 l 94 567 l 256 707 l 521 707 l 565 590 l 501 553 l 424 629 l 264 519 l 210 163 l 336 58 l 439 144 l 513 101 l 431 -10 l 150 -10 z "},"ć":{"ha":564,"x_min":28,"x_max":638,"o":"m 311 767 l 463 947 l 638 946 l 418 767 l 311 767 m 150 -10 l 28 131 l 94 567 l 256 707 l 521 707 l 565 590 l 501 553 l 424 629 l 264 519 l 210 163 l 336 58 l 439 144 l 513 101 l 431 -10 l 150 -10 z "},"č":{"ha":564,"x_min":28,"x_max":629,"o":"m 304 775 l 203 956 l 310 956 l 401 857 l 522 956 l 629 956 l 478 775 l 304 775 m 150 -10 l 28 131 l 94 567 l 256 707 l 521 707 l 565 590 l 501 553 l 424 629 l 264 519 l 210 163 l 336 58 l 439 144 l 513 101 l 431 -10 l 150 -10 z "},"ç":{"ha":564,"x_min":28,"x_max":565,"o":"m 150 -10 l 28 131 l 94 567 l 256 707 l 521 707 l 565 590 l 501 553 l 424 629 l 264 519 l 210 163 l 336 58 l 439 144 l 513 101 l 431 -10 l 150 -10 m 364 -46 l 435 -131 l 326 -278 l 114 -278 l 71 -147 l 136 -147 l 218 -218 l 304 -142 l 250 -83 l 293 -46 l 364 -46 z "},"ĉ":{"ha":564,"x_min":28,"x_max":599,"o":"m 324 956 l 497 956 l 599 775 l 492 775 l 399 874 l 279 775 l 172 775 l 324 956 m 150 -10 l 28 131 l 94 567 l 256 707 l 521 707 l 565 590 l 501 553 l 424 629 l 264 519 l 210 163 l 336 58 l 439 144 l 513 101 l 431 -10 l 150 -10 z "},"ċ":{"ha":564,"x_min":28,"x_max":565,"o":"m 374 768 l 299 828 l 311 921 l 399 956 l 474 896 l 461 804 l 374 768 m 150 -10 l 28 131 l 94 567 l 256 707 l 521 707 l 565 590 l 501 553 l 424 629 l 264 519 l 210 163 l 336 58 l 439 144 l 513 101 l 431 -10 l 150 -10 z "},"d":{"ha":715,"x_min":28,"x_max":721,"o":"m 150 -11 l 28 131 l 86 550 l 267 707 l 456 707 l 507 649 l 557 1003 l 721 1003 l 581 0 l 417 0 l 431 93 l 310 -11 l 150 -11 m 279 111 l 356 176 l 442 176 l 490 525 l 371 606 l 239 476 l 201 204 l 279 111 z "},"ð":{"ha":667,"x_min":8,"x_max":668,"o":"m 578 907 l 668 804 l 638 567 l 576 118 l 428 -10 l 143 -10 l 8 147 l 68 567 l 231 708 l 514 708 l 521 772 l 465 811 l 372 731 l 328 782 l 408 851 l 375 875 l 271 790 l 197 833 l 313 944 l 518 944 l 608 1021 l 653 971 l 578 907 m 421 190 l 472 547 l 376 622 l 226 535 l 176 181 l 282 72 l 421 190 z "},"ď":{"ha":835,"x_min":28,"x_max":938,"o":"m 28 131 l 86 550 l 267 707 l 456 707 l 507 649 l 557 1003 l 721 1003 l 581 0 l 417 0 l 431 93 l 310 -11 l 150 -11 l 28 131 m 757 739 l 796 1001 l 938 1001 l 925 914 l 833 739 l 757 739 m 279 111 l 356 176 l 442 176 l 490 525 l 371 606 l 239 476 l 201 204 l 279 111 z "},"đ":{"ha":725,"x_min":28,"x_max":838,"o":"m 838 894 l 821 785 l 690 785 l 581 0 l 417 0 l 431 93 l 310 -11 l 150 -11 l 28 131 l 86 550 l 267 707 l 456 707 l 507 649 l 526 785 l 267 785 l 283 894 l 542 894 l 557 1003 l 721 1003 l 706 894 l 838 894 m 442 176 l 490 525 l 371 606 l 239 476 l 201 204 l 279 111 l 356 176 l 442 176 z "},"e":{"ha":626,"x_min":28,"x_max":606,"o":"m 150 -10 l 28 132 l 86 551 l 265 708 l 510 708 l 606 574 l 575 403 l 383 264 l 224 264 l 210 161 l 336 57 l 439 143 l 513 100 l 431 -11 l 150 -10 m 236 357 l 344 403 l 396 403 l 479 504 l 410 629 l 260 535 l 236 357 z "},"é":{"ha":626,"x_min":28,"x_max":653,"o":"m 326 767 l 478 947 l 653 946 l 433 767 l 326 767 m 431 -11 l 150 -10 l 28 132 l 86 551 l 265 708 l 510 708 l 606 574 l 575 403 l 383 264 l 224 264 l 210 161 l 336 57 l 439 143 l 513 100 l 431 -11 m 236 357 l 344 403 l 396 403 l 479 504 l 410 629 l 260 535 l 236 357 z "},"ĕ":{"ha":626,"x_min":28,"x_max":606,"o":"m 260 858 l 272 939 l 344 939 l 339 899 l 403 858 l 479 899 l 485 939 l 558 939 l 546 857 l 392 775 l 260 858 m 150 -10 l 28 132 l 86 551 l 265 708 l 510 708 l 606 574 l 575 403 l 383 264 l 224 264 l 210 161 l 336 57 l 439 143 l 513 100 l 431 -11 l 150 -10 m 236 357 l 344 403 l 396 403 l 479 504 l 410 629 l 260 535 l 236 357 z "},"ě":{"ha":651,"x_min":28,"x_max":631,"o":"m 306 775 l 204 956 l 311 956 l 403 857 l 524 956 l 631 956 l 479 775 l 306 775 m 431 -11 l 150 -10 l 28 132 l 86 551 l 265 708 l 510 708 l 606 574 l 575 403 l 383 264 l 224 264 l 210 161 l 336 57 l 439 143 l 513 100 l 431 -11 m 236 357 l 344 403 l 396 403 l 479 504 l 410 629 l 260 535 l 236 357 z "},"ê":{"ha":626,"x_min":28,"x_max":606,"o":"m 174 775 l 325 956 l 499 956 l 600 775 l 493 775 l 400 874 l 281 775 l 174 775 m 431 -11 l 150 -10 l 28 132 l 86 551 l 265 708 l 510 708 l 606 574 l 575 403 l 383 264 l 224 264 l 210 161 l 336 57 l 439 143 l 513 100 l 431 -11 m 236 357 l 344 403 l 396 403 l 479 504 l 410 629 l 260 535 l 236 357 z "},"ë":{"ha":626,"x_min":28,"x_max":606,"o":"m 265 763 l 190 822 l 203 915 l 290 950 l 365 890 l 353 799 l 265 763 m 483 763 l 408 822 l 421 915 l 508 950 l 583 890 l 571 799 l 483 763 m 431 -11 l 150 -10 l 28 132 l 86 551 l 265 708 l 510 708 l 606 574 l 575 403 l 383 264 l 224 264 l 210 161 l 336 57 l 439 143 l 513 100 l 431 -11 m 236 357 l 344 403 l 396 403 l 479 504 l 410 629 l 260 535 l 236 357 z "},"ė":{"ha":626,"x_min":28,"x_max":606,"o":"m 389 763 l 314 822 l 326 915 l 414 950 l 489 890 l 476 799 l 389 763 m 431 -11 l 150 -10 l 28 132 l 86 551 l 265 708 l 510 708 l 606 574 l 575 403 l 383 264 l 224 264 l 210 161 l 336 57 l 439 143 l 513 100 l 431 -11 m 236 357 l 344 403 l 396 403 l 479 504 l 410 629 l 260 535 l 236 357 z "},"è":{"ha":626,"x_min":28,"x_max":606,"o":"m 157 946 l 332 947 l 433 767 l 326 767 l 157 946 m 431 -11 l 150 -10 l 28 132 l 86 551 l 265 708 l 510 708 l 606 574 l 575 403 l 383 264 l 224 264 l 210 161 l 336 57 l 439 143 l 513 100 l 431 -11 m 236 357 l 344 403 l 396 403 l 479 504 l 410 629 l 260 535 l 236 357 z "},"ē":{"ha":632,"x_min":28,"x_max":608,"o":"m 201 818 l 217 931 l 608 931 l 593 818 l 201 818 m 431 -11 l 150 -10 l 28 132 l 86 551 l 265 708 l 510 708 l 606 574 l 575 403 l 383 264 l 224 264 l 210 161 l 336 57 l 439 143 l 513 100 l 431 -11 m 236 357 l 344 403 l 396 403 l 479 504 l 410 629 l 260 535 l 236 357 z "},"ę":{"ha":626,"x_min":28,"x_max":606,"o":"m 431 -11 l 150 -10 l 28 132 l 86 551 l 265 708 l 510 708 l 606 574 l 575 403 l 383 264 l 224 264 l 210 161 l 336 57 l 439 143 l 513 100 l 431 -11 m 236 357 l 344 403 l 396 403 l 479 504 l 410 629 l 260 535 l 236 357 m 96 -278 l 53 -147 l 118 -147 l 200 -218 l 286 -142 l 232 -83 l 275 -46 l 346 -46 l 417 -131 l 308 -278 l 96 -278 z "},"f":{"ha":504,"x_min":39,"x_max":588,"o":"m 65 0 l 136 485 l 196 543 l 39 543 l 60 694 l 168 694 l 194 881 l 349 1010 l 538 1010 l 588 886 l 518 818 l 474 818 l 486 907 l 438 944 l 360 878 l 326 650 l 376 694 l 529 694 l 506 607 l 414 543 l 311 543 l 232 0 l 65 0 z "},"g":{"ha":713,"x_min":28,"x_max":676,"o":"m 172 -279 l 78 -168 l 164 -125 l 281 -211 l 401 -107 l 426 65 l 339 -11 l 147 -11 l 28 131 l 86 550 l 265 707 l 440 707 l 506 631 l 515 694 l 676 694 l 557 -149 l 410 -278 l 172 -279 m 278 111 l 354 176 l 442 176 l 492 524 l 371 606 l 239 476 l 200 204 l 278 111 z "},"ğ":{"ha":713,"x_min":28,"x_max":676,"o":"m 290 858 l 303 939 l 375 939 l 369 899 l 433 858 l 510 899 l 515 939 l 589 939 l 576 857 l 422 775 l 290 858 m 172 -279 l 78 -168 l 164 -125 l 281 -211 l 401 -107 l 426 65 l 339 -11 l 147 -11 l 28 131 l 86 550 l 265 707 l 440 707 l 506 631 l 515 694 l 676 694 l 557 -149 l 410 -278 l 172 -279 m 278 111 l 354 176 l 442 176 l 492 524 l 371 606 l 239 476 l 200 204 l 278 111 z "},"ĝ":{"ha":713,"x_min":28,"x_max":676,"o":"m 346 956 l 519 956 l 621 775 l 514 775 l 421 874 l 301 775 l 194 775 l 346 956 m 172 -279 l 78 -168 l 164 -125 l 281 -211 l 401 -107 l 426 65 l 339 -11 l 147 -11 l 28 131 l 86 550 l 265 707 l 440 707 l 506 631 l 515 694 l 676 694 l 557 -149 l 410 -278 l 172 -279 m 278 111 l 354 176 l 442 176 l 492 524 l 371 606 l 239 476 l 200 204 l 278 111 z "},"ģ":{"ha":713,"x_min":28,"x_max":676,"o":"m 471 947 l 646 946 l 426 767 l 319 767 l 471 947 m 172 -279 l 78 -168 l 164 -125 l 281 -211 l 401 -107 l 426 65 l 339 -11 l 147 -11 l 28 131 l 86 550 l 265 707 l 440 707 l 506 631 l 515 694 l 676 694 l 557 -149 l 410 -278 l 172 -279 m 278 111 l 354 176 l 442 176 l 492 524 l 371 606 l 239 476 l 200 204 l 278 111 z "},"ġ":{"ha":713,"x_min":28,"x_max":676,"o":"m 410 769 l 335 829 l 347 922 l 435 957 l 510 897 l 497 806 l 410 769 m 172 -279 l 78 -168 l 164 -125 l 281 -211 l 401 -107 l 426 65 l 339 -11 l 147 -11 l 28 131 l 86 550 l 265 707 l 440 707 l 506 631 l 515 694 l 676 694 l 557 -149 l 410 -278 l 172 -279 m 278 111 l 354 176 l 442 176 l 492 524 l 371 606 l 239 476 l 200 204 l 278 111 z "},"h":{"ha":743,"x_min":28,"x_max":682,"o":"m 28 0 l 169 1003 l 346 1003 l 293 626 l 385 707 l 574 707 l 682 581 l 600 0 l 422 0 l 493 508 l 411 604 l 278 519 l 204 0 l 28 0 z "},"ħ":{"ha":743,"x_min":28,"x_max":682,"o":"m 574 707 l 682 581 l 600 0 l 422 0 l 493 508 l 411 604 l 278 519 l 204 0 l 28 0 l 139 785 l 39 785 l 56 894 l 154 894 l 169 1003 l 346 1003 l 331 894 l 610 894 l 593 785 l 315 785 l 293 626 l 385 707 l 574 707 z "},"ĥ":{"ha":743,"x_min":28,"x_max":682,"o":"m 192 1221 l 365 1221 l 467 1040 l 360 1040 l 267 1139 l 147 1040 l 40 1040 l 192 1221 m 28 0 l 169 1003 l 346 1003 l 293 626 l 385 707 l 574 707 l 682 581 l 600 0 l 422 0 l 493 508 l 411 604 l 278 519 l 204 0 l 28 0 z "},"i":{"ha":321,"x_min":28,"x_max":336,"o":"m 236 769 l 161 829 l 174 922 l 261 957 l 336 897 l 324 806 l 236 769 m 28 0 l 100 518 l 193 694 l 288 694 l 190 0 l 28 0 z "},"ı":{"ha":321,"x_min":28,"x_max":288,"o":"m 28 0 l 100 518 l 193 694 l 288 694 l 190 0 l 28 0 z "},"í":{"ha":321,"x_min":28,"x_max":532,"o":"m 206 767 l 357 947 l 532 946 l 313 767 l 206 767 m 28 0 l 100 518 l 193 694 l 288 694 l 190 0 l 28 0 z "},"ĭ":{"ha":321,"x_min":28,"x_max":419,"o":"m 253 775 l 121 858 l 133 939 l 206 939 l 200 899 l 264 858 l 340 899 l 346 939 l 419 939 l 407 857 l 253 775 m 28 0 l 100 518 l 193 694 l 288 694 l 190 0 l 28 0 z "},"î":{"ha":321,"x_min":28,"x_max":460,"o":"m 185 956 l 358 956 l 460 775 l 353 775 l 260 874 l 140 775 l 33 775 l 185 956 m 28 0 l 100 518 l 193 694 l 288 694 l 190 0 l 28 0 z "},"ï":{"ha":321,"x_min":28,"x_max":460,"o":"m 142 763 l 67 822 l 79 915 l 167 950 l 242 890 l 229 799 l 142 763 m 360 763 l 285 822 l 297 915 l 385 950 l 460 890 l 447 799 l 360 763 m 28 0 l 100 518 l 193 694 l 288 694 l 190 0 l 28 0 z "},"ì":{"ha":321,"x_min":28,"x_max":306,"o":"m 199 767 l 29 946 l 204 947 l 306 767 l 199 767 m 28 0 l 100 518 l 193 694 l 288 694 l 190 0 l 28 0 z "},"ī":{"ha":321,"x_min":28,"x_max":479,"o":"m 72 818 l 88 931 l 479 931 l 464 818 l 72 818 m 28 0 l 100 518 l 193 694 l 288 694 l 190 0 l 28 0 z "},"į":{"ha":321,"x_min":-1,"x_max":364,"o":"m 264 769 l 189 829 l 201 922 l 289 957 l 364 897 l 351 806 l 264 769 m 28 0 l 100 518 l 193 694 l 288 694 l 190 0 l 28 0 m 65 -278 l -1 -131 l 93 -46 l 164 -46 l 196 -83 l 126 -142 l 190 -218 l 292 -147 l 357 -147 l 278 -278 l 65 -278 z "},"ĩ":{"ha":321,"x_min":28,"x_max":478,"o":"m 88 915 l 196 982 l 368 890 l 407 972 l 478 972 l 461 849 l 353 782 l 168 881 l 140 792 l 69 792 l 88 915 m 28 0 l 100 518 l 193 694 l 288 694 l 190 0 l 28 0 z "},"j":{"ha":321,"x_min":-90,"x_max":343,"o":"m 243 769 l 168 829 l 181 922 l 268 957 l 343 897 l 331 806 l 243 769 m -42 -276 l -90 -124 l -14 -124 l 81 -206 l 182 -117 l 36 0 l 108 517 l 188 694 l 297 694 l 206 50 l 335 -103 l 208 -276 l -42 -276 z "},"ȷ":{"ha":310,"x_min":-90,"x_max":335,"o":"m -42 -276 l -90 -124 l -14 -124 l 81 -206 l 182 -117 l 36 0 l 108 517 l 188 694 l 297 694 l 206 50 l 335 -103 l 208 -276 l -42 -276 z "},"ĵ":{"ha":310,"x_min":-90,"x_max":463,"o":"m 188 956 l 361 956 l 463 775 l 356 775 l 263 874 l 143 775 l 36 775 l 188 956 m -42 -276 l -90 -124 l -14 -124 l 81 -206 l 182 -117 l 36 0 l 108 517 l 188 694 l 297 694 l 206 50 l 335 -103 l 208 -276 l -42 -276 z "},"k":{"ha":597,"x_min":28,"x_max":640,"o":"m 28 0 l 169 1003 l 333 1003 l 244 372 l 492 694 l 606 694 l 640 606 l 329 333 l 431 333 l 606 0 l 408 0 l 238 326 l 192 0 l 28 0 z "},"ķ":{"ha":597,"x_min":28,"x_max":640,"o":"m 28 0 l 169 1003 l 333 1003 l 244 372 l 492 694 l 606 694 l 640 606 l 329 333 l 431 333 l 606 0 l 408 0 l 238 326 l 192 0 l 28 0 m 125 -354 l 215 -92 l 368 -92 l 339 -179 l 201 -354 l 125 -354 z "},"ĸ":{"ha":597,"x_min":28,"x_max":640,"o":"m 28 0 l 99 503 l 125 694 l 289 694 l 244 372 l 492 694 l 606 694 l 640 606 l 329 333 l 431 333 l 606 0 l 408 0 l 238 326 l 192 0 l 28 0 z "},"l":{"ha":340,"x_min":28,"x_max":347,"o":"m 28 0 l 144 826 l 238 1003 l 347 1003 l 206 0 l 28 0 z "},"ĺ":{"ha":340,"x_min":28,"x_max":579,"o":"m 404 1221 l 579 1219 l 360 1040 l 253 1040 l 404 1221 m 28 0 l 144 826 l 238 1003 l 347 1003 l 206 0 l 28 0 z "},"ľ":{"ha":560,"x_min":28,"x_max":549,"o":"m 28 0 l 144 826 l 238 1003 l 347 1003 l 206 0 l 28 0 m 368 739 l 407 1001 l 549 1001 l 536 914 l 444 739 l 368 739 z "},"ļ":{"ha":385,"x_min":-51,"x_max":347,"o":"m 28 0 l 144 826 l 238 1003 l 347 1003 l 206 0 l 28 0 m -51 -354 l 39 -92 l 192 -92 l 163 -179 l 25 -354 l -51 -354 z "},"ŀ":{"ha":603,"x_min":28,"x_max":592,"o":"m 28 0 l 144 826 l 238 1003 l 347 1003 l 206 0 l 28 0 m 443 363 l 333 450 l 353 588 l 482 639 l 592 551 l 572 414 l 443 363 z "},"ł":{"ha":390,"x_min":-28,"x_max":467,"o":"m 467 638 l 313 579 l 231 0 l 53 0 l 125 507 l 26 469 l -28 603 l 147 669 l 169 826 l 263 1003 l 372 1003 l 335 742 l 413 771 l 467 638 z "},"m":{"ha":1031,"x_min":28,"x_max":1003,"o":"m 28 0 l 100 517 l 40 694 l 153 694 l 226 590 l 358 707 l 547 707 l 621 621 l 719 707 l 908 707 l 1003 597 l 946 192 l 933 103 l 919 0 l 757 0 l 828 508 l 763 583 l 686 519 l 631 519 l 557 0 l 396 0 l 467 508 l 401 583 l 325 519 l 276 519 l 206 0 l 28 0 z "},"n":{"ha":733,"x_min":28,"x_max":683,"o":"m 28 0 l 100 517 l 40 694 l 153 694 l 236 576 l 386 707 l 575 707 l 683 581 l 629 192 l 617 103 l 601 0 l 424 0 l 494 508 l 429 583 l 351 519 l 276 519 l 206 0 l 28 0 z "},"ń":{"ha":733,"x_min":28,"x_max":683,"o":"m 331 767 l 482 947 l 657 946 l 438 767 l 331 767 m 28 0 l 100 517 l 40 694 l 153 694 l 236 576 l 386 707 l 575 707 l 683 581 l 629 192 l 617 103 l 601 0 l 424 0 l 494 508 l 429 583 l 351 519 l 276 519 l 206 0 l 28 0 z "},"ň":{"ha":733,"x_min":28,"x_max":683,"o":"m 356 775 l 254 956 l 361 956 l 453 857 l 574 956 l 681 956 l 529 775 l 356 775 m 28 0 l 100 517 l 40 694 l 153 694 l 236 576 l 386 707 l 575 707 l 683 581 l 629 192 l 617 103 l 601 0 l 424 0 l 494 508 l 429 583 l 351 519 l 276 519 l 206 0 l 28 0 z "},"ņ":{"ha":733,"x_min":28,"x_max":683,"o":"m 28 0 l 100 517 l 40 694 l 153 694 l 236 576 l 386 707 l 575 707 l 683 581 l 629 192 l 617 103 l 601 0 l 424 0 l 494 508 l 429 583 l 351 519 l 276 519 l 206 0 l 28 0 m 135 -354 l 225 -92 l 378 -92 l 349 -179 l 211 -354 l 135 -354 z "},"ŋ":{"ha":733,"x_min":28,"x_max":683,"o":"m 28 0 l 100 517 l 40 694 l 153 694 l 236 576 l 386 707 l 575 707 l 683 581 l 578 -171 l 439 -278 l 264 -278 l 169 -129 l 222 -50 l 344 -161 l 407 -111 l 494 508 l 429 583 l 351 519 l 276 519 l 206 0 l 28 0 z "},"ñ":{"ha":733,"x_min":28,"x_max":683,"o":"m 256 915 l 364 982 l 536 890 l 575 972 l 646 972 l 629 849 l 521 782 l 336 881 l 308 792 l 238 792 l 256 915 m 28 0 l 100 517 l 40 694 l 153 694 l 236 576 l 386 707 l 575 707 l 683 581 l 629 192 l 617 103 l 601 0 l 424 0 l 494 508 l 429 583 l 351 519 l 276 519 l 206 0 l 28 0 z "},"o":{"ha":693,"x_min":28,"x_max":657,"o":"m 163 -10 l 28 147 l 88 567 l 250 708 l 533 708 l 657 567 l 596 118 l 447 -10 l 163 -10 m 301 72 l 440 190 l 492 547 l 396 622 l 246 535 l 196 181 l 301 72 z "},"ó":{"ha":693,"x_min":28,"x_max":657,"o":"m 310 767 l 461 947 l 636 946 l 417 767 l 310 767 m 163 -10 l 28 147 l 88 567 l 250 708 l 533 708 l 657 567 l 596 118 l 447 -10 l 163 -10 m 301 72 l 440 190 l 492 547 l 396 622 l 246 535 l 196 181 l 301 72 z "},"ŏ":{"ha":693,"x_min":28,"x_max":657,"o":"m 257 858 l 269 939 l 342 939 l 336 899 l 400 858 l 476 899 l 482 939 l 556 939 l 543 857 l 389 775 l 257 858 m 163 -10 l 28 147 l 88 567 l 250 708 l 533 708 l 657 567 l 596 118 l 447 -10 l 163 -10 m 196 181 l 301 72 l 440 190 l 492 547 l 396 622 l 246 535 l 196 181 z "},"ô":{"ha":693,"x_min":28,"x_max":657,"o":"m 336 956 l 510 956 l 611 775 l 504 775 l 411 874 l 292 775 l 185 775 l 336 956 m 28 147 l 88 567 l 250 708 l 533 708 l 657 567 l 596 118 l 447 -10 l 163 -10 l 28 147 m 196 181 l 301 72 l 440 190 l 492 547 l 396 622 l 246 535 l 196 181 z "},"ö":{"ha":693,"x_min":28,"x_max":657,"o":"m 276 763 l 201 822 l 214 915 l 301 950 l 376 890 l 364 799 l 276 763 m 494 763 l 419 822 l 432 915 l 519 950 l 594 890 l 582 799 l 494 763 m 163 -10 l 28 147 l 88 567 l 250 708 l 533 708 l 657 567 l 596 118 l 447 -10 l 163 -10 m 196 181 l 301 72 l 440 190 l 492 547 l 396 622 l 246 535 l 196 181 z "},"ò":{"ha":693,"x_min":28,"x_max":657,"o":"m 154 946 l 329 947 l 431 767 l 324 767 l 154 946 m 163 -10 l 28 147 l 88 567 l 250 708 l 533 708 l 657 567 l 596 118 l 447 -10 l 163 -10 m 196 181 l 301 72 l 440 190 l 492 547 l 396 622 l 246 535 l 196 181 z "},"ő":{"ha":693,"x_min":28,"x_max":769,"o":"m 392 949 l 568 947 l 349 768 l 242 768 l 392 949 m 594 949 l 769 947 l 550 768 l 443 768 l 594 949 m 163 -10 l 28 147 l 88 567 l 250 708 l 533 708 l 657 567 l 596 118 l 447 -10 l 163 -10 m 196 181 l 301 72 l 440 190 l 492 547 l 396 622 l 246 535 l 196 181 z "},"ō":{"ha":693,"x_min":28,"x_max":657,"o":"m 201 818 l 217 931 l 608 931 l 593 818 l 201 818 m 28 147 l 88 567 l 250 708 l 533 708 l 657 567 l 596 118 l 447 -10 l 163 -10 l 28 147 m 196 181 l 301 72 l 440 190 l 492 547 l 396 622 l 246 535 l 196 181 z "},"ø":{"ha":711,"x_min":8,"x_max":707,"o":"m 707 646 l 644 582 l 657 567 l 596 118 l 447 -10 l 163 -10 l 119 42 l 68 -11 l 8 51 l 63 107 l 28 147 l 88 567 l 250 708 l 533 708 l 586 647 l 646 708 l 707 646 m 246 535 l 207 256 l 490 549 l 396 622 l 246 535 m 440 190 l 471 403 l 225 150 l 301 72 l 440 190 z "},"õ":{"ha":693,"x_min":28,"x_max":657,"o":"m 232 915 l 340 982 l 513 890 l 551 972 l 622 972 l 606 849 l 497 782 l 313 881 l 285 792 l 214 792 l 232 915 m 28 147 l 88 567 l 250 708 l 533 708 l 657 567 l 596 118 l 447 -10 l 163 -10 l 28 147 m 196 181 l 301 72 l 440 190 l 492 547 l 396 622 l 246 535 l 196 181 z "},"œ":{"ha":1018,"x_min":28,"x_max":997,"o":"m 822 -11 l 542 -10 l 501 38 l 447 -10 l 163 -10 l 28 147 l 88 567 l 250 708 l 533 708 l 588 647 l 657 708 l 901 708 l 997 574 l 967 403 l 775 264 l 615 264 l 601 161 l 728 57 l 831 143 l 904 100 l 822 -11 m 629 357 l 738 403 l 789 403 l 872 504 l 803 629 l 653 535 l 629 357 m 301 72 l 440 190 l 492 547 l 396 622 l 246 535 l 196 181 l 301 72 z "},"p":{"ha":717,"x_min":-8,"x_max":679,"o":"m -8 -278 l 129 694 l 226 694 l 268 631 l 354 707 l 543 707 l 679 550 l 619 131 l 457 -11 l 296 -11 l 206 93 l 154 -278 l -8 -278 m 267 524 l 218 176 l 304 176 l 363 111 l 467 204 l 506 476 l 410 606 l 267 524 z "},"þ":{"ha":718,"x_min":-8,"x_max":679,"o":"m -8 -278 l 169 972 l 235 972 l 313 847 l 283 644 l 354 707 l 543 707 l 679 551 l 619 131 l 457 -11 l 294 -11 l 206 93 l 154 -278 l -8 -278 m 268 525 l 219 178 l 306 178 l 364 113 l 468 206 l 507 478 l 411 607 l 268 525 z "},"q":{"ha":713,"x_min":26,"x_max":675,"o":"m 26 131 l 85 550 l 265 707 l 454 707 l 518 631 l 578 694 l 675 694 l 539 -278 l 376 -278 l 429 93 l 310 -11 l 149 -11 l 26 131 m 489 524 l 369 606 l 238 476 l 200 204 l 278 111 l 354 176 l 440 176 l 489 524 z "},"r":{"ha":542,"x_min":50,"x_max":556,"o":"m 51 0 l 124 517 l 50 694 l 163 694 l 229 608 l 333 704 l 489 704 l 556 585 l 504 503 l 414 503 l 424 569 l 399 594 l 301 517 l 229 0 l 51 0 z "},"ŕ":{"ha":590,"x_min":50,"x_max":604,"o":"m 278 767 l 429 947 l 604 946 l 385 767 l 278 767 m 51 0 l 124 517 l 50 694 l 163 694 l 229 608 l 333 704 l 489 704 l 556 585 l 504 503 l 414 503 l 424 569 l 399 594 l 301 517 l 229 0 l 51 0 z "},"ř":{"ha":550,"x_min":50,"x_max":564,"o":"m 239 775 l 138 956 l 244 956 l 336 857 l 457 956 l 564 956 l 413 775 l 239 775 m 51 0 l 124 517 l 50 694 l 163 694 l 229 608 l 333 704 l 489 704 l 556 585 l 504 503 l 414 503 l 424 569 l 399 594 l 301 517 l 229 0 l 51 0 z "},"ŗ":{"ha":633,"x_min":50,"x_max":647,"o":"m 143 0 l 215 517 l 142 694 l 254 694 l 321 608 l 425 704 l 581 704 l 647 585 l 596 503 l 506 503 l 515 569 l 490 594 l 393 517 l 321 0 l 143 0 m 50 -354 l 140 -92 l 293 -92 l 264 -179 l 126 -354 l 50 -354 z "},"s":{"ha":604,"x_min":14,"x_max":583,"o":"m 124 -14 l 14 114 l 90 206 l 175 206 l 163 117 l 226 79 l 342 153 l 358 258 l 119 329 l 57 401 l 76 551 l 256 708 l 486 708 l 583 594 l 507 503 l 422 503 l 435 592 l 386 629 l 253 535 l 233 385 l 339 426 l 475 386 l 540 311 l 517 140 l 340 -14 l 124 -14 z "},"ś":{"ha":604,"x_min":14,"x_max":625,"o":"m 450 947 l 625 946 l 406 767 l 299 767 l 450 947 m 124 -14 l 14 114 l 90 206 l 175 206 l 163 117 l 226 79 l 342 153 l 358 258 l 119 329 l 57 401 l 76 551 l 256 708 l 486 708 l 583 594 l 507 503 l 422 503 l 435 592 l 386 629 l 253 535 l 233 385 l 339 426 l 475 386 l 540 311 l 517 140 l 340 -14 l 124 -14 z "},"š":{"ha":604,"x_min":14,"x_max":613,"o":"m 288 775 l 186 956 l 293 956 l 385 857 l 506 956 l 613 956 l 461 775 l 288 775 m 124 -14 l 14 114 l 90 206 l 175 206 l 163 117 l 226 79 l 342 153 l 358 258 l 119 329 l 57 401 l 76 551 l 256 708 l 486 708 l 583 594 l 507 503 l 422 503 l 435 592 l 386 629 l 253 535 l 233 385 l 339 426 l 475 386 l 540 311 l 517 140 l 340 -14 l 124 -14 z "},"ş":{"ha":604,"x_min":14,"x_max":583,"o":"m 124 -14 l 14 114 l 90 206 l 175 206 l 163 117 l 226 79 l 342 153 l 358 258 l 119 329 l 57 401 l 76 551 l 256 708 l 486 708 l 583 594 l 507 503 l 422 503 l 435 592 l 386 629 l 253 535 l 233 385 l 339 426 l 475 386 l 540 311 l 517 140 l 340 -14 l 124 -14 m 78 -279 l 35 -149 l 100 -149 l 182 -219 l 268 -143 l 214 -85 l 257 -47 l 328 -47 l 399 -132 l 290 -279 l 78 -279 z "},"ŝ":{"ha":619,"x_min":14,"x_max":599,"o":"m 324 956 l 497 956 l 599 775 l 492 775 l 399 874 l 279 775 l 172 775 l 324 956 m 124 -14 l 14 114 l 90 206 l 175 206 l 163 117 l 226 79 l 342 153 l 358 258 l 119 329 l 57 401 l 76 551 l 256 708 l 486 708 l 583 594 l 507 503 l 422 503 l 435 592 l 386 629 l 253 535 l 233 385 l 339 426 l 475 386 l 540 311 l 517 140 l 340 -14 l 124 -14 z "},"ș":{"ha":604,"x_min":14,"x_max":583,"o":"m 124 -14 l 14 114 l 90 206 l 175 206 l 163 117 l 226 79 l 342 153 l 358 258 l 119 329 l 57 401 l 76 551 l 256 708 l 486 708 l 583 594 l 507 503 l 422 503 l 435 592 l 386 629 l 253 535 l 233 385 l 339 426 l 475 386 l 540 311 l 517 140 l 340 -14 l 124 -14 m 44 -354 l 135 -92 l 288 -92 l 258 -179 l 121 -354 l 44 -354 z "},"ß":{"ha":829,"x_min":44,"x_max":813,"o":"m 49 0 l 119 485 l 168 533 l 44 533 l 67 694 l 151 694 l 178 881 l 332 1010 l 571 1010 l 699 826 l 672 638 l 514 535 l 492 372 l 592 417 l 764 365 l 813 311 l 789 140 l 619 -14 l 396 -14 l 286 114 l 363 206 l 447 206 l 435 117 l 499 79 l 642 172 l 656 264 l 375 347 l 329 401 l 349 551 l 528 708 l 551 878 l 447 944 l 343 878 l 215 0 l 49 0 z "},"t":{"ha":518,"x_min":64,"x_max":540,"o":"m 194 -14 l 94 89 l 157 543 l 64 543 l 85 694 l 178 694 l 189 771 l 283 949 l 378 949 l 336 649 l 388 694 l 540 694 l 517 607 l 425 543 l 322 543 l 264 121 l 328 68 l 428 138 l 501 94 l 419 -14 l 194 -14 z "},"ŧ":{"ha":547,"x_min":64,"x_max":569,"o":"m 454 543 l 351 543 l 339 458 l 439 458 l 421 329 l 322 329 l 293 121 l 357 68 l 457 138 l 531 94 l 449 -14 l 224 -14 l 124 89 l 157 329 l 64 329 l 82 458 l 175 458 l 186 543 l 93 543 l 114 694 l 207 694 l 218 771 l 313 949 l 407 949 l 365 649 l 417 694 l 569 694 l 546 607 l 454 543 z "},"ť":{"ha":568,"x_min":64,"x_max":590,"o":"m 410 751 l 449 1014 l 590 1014 l 578 926 l 486 751 l 410 751 m 194 -14 l 94 89 l 157 543 l 64 543 l 85 694 l 178 694 l 189 771 l 283 949 l 378 949 l 336 649 l 388 694 l 540 694 l 517 607 l 425 543 l 322 543 l 264 121 l 328 68 l 428 138 l 501 94 l 419 -14 l 194 -14 z "},"ţ":{"ha":518,"x_min":64,"x_max":540,"o":"m 194 -14 l 94 89 l 157 543 l 64 543 l 85 694 l 178 694 l 189 771 l 283 949 l 378 949 l 336 649 l 388 694 l 540 694 l 517 607 l 425 543 l 322 543 l 264 121 l 328 68 l 428 138 l 501 94 l 419 -14 l 194 -14 m 129 -354 l 219 -92 l 372 -92 l 343 -179 l 206 -354 l 129 -354 z "},"u":{"ha":701,"x_min":35,"x_max":660,"o":"m 35 114 l 117 694 l 281 694 l 210 186 l 289 111 l 365 175 l 428 175 l 497 694 l 660 694 l 589 192 l 660 0 l 564 0 l 471 118 l 332 -12 l 143 -12 l 35 114 z "},"ú":{"ha":701,"x_min":35,"x_max":660,"o":"m 324 767 l 475 947 l 650 946 l 431 767 l 324 767 m 143 -12 l 35 114 l 117 694 l 281 694 l 210 186 l 289 111 l 365 175 l 428 175 l 497 694 l 660 694 l 589 192 l 660 0 l 564 0 l 471 118 l 332 -12 l 143 -12 z "},"ŭ":{"ha":696,"x_min":35,"x_max":660,"o":"m 276 858 l 289 939 l 361 939 l 356 899 l 419 858 l 496 899 l 501 939 l 575 939 l 563 857 l 408 775 l 276 858 m 35 114 l 117 694 l 281 694 l 210 186 l 289 111 l 365 175 l 428 175 l 497 694 l 660 694 l 589 192 l 660 0 l 564 0 l 471 118 l 332 -12 l 143 -12 l 35 114 z "},"û":{"ha":701,"x_min":35,"x_max":660,"o":"m 339 956 l 513 956 l 614 775 l 507 775 l 414 874 l 294 775 l 188 775 l 339 956 m 35 114 l 117 694 l 281 694 l 210 186 l 289 111 l 365 175 l 428 175 l 497 694 l 660 694 l 589 192 l 660 0 l 564 0 l 471 118 l 332 -12 l 143 -12 l 35 114 z "},"ü":{"ha":701,"x_min":35,"x_max":660,"o":"m 283 763 l 208 822 l 221 915 l 308 950 l 383 890 l 371 799 l 283 763 m 501 763 l 426 822 l 439 915 l 526 950 l 601 890 l 589 799 l 501 763 m 143 -12 l 35 114 l 117 694 l 281 694 l 210 186 l 289 111 l 365 175 l 428 175 l 497 694 l 660 694 l 589 192 l 660 0 l 564 0 l 471 118 l 332 -12 l 143 -12 z "},"ù":{"ha":701,"x_min":35,"x_max":660,"o":"m 182 946 l 357 947 l 458 767 l 351 767 l 182 946 m 35 114 l 117 694 l 281 694 l 210 186 l 289 111 l 365 175 l 428 175 l 497 694 l 660 694 l 589 192 l 660 0 l 564 0 l 471 118 l 332 -12 l 143 -12 l 35 114 z "},"ű":{"ha":792,"x_min":35,"x_max":756,"o":"m 378 949 l 554 947 l 335 768 l 228 768 l 378 949 m 581 949 l 756 947 l 536 768 l 429 768 l 581 949 m 143 -12 l 35 114 l 117 694 l 281 694 l 210 186 l 289 111 l 365 175 l 428 175 l 497 694 l 660 694 l 589 192 l 660 0 l 564 0 l 471 118 l 332 -12 l 143 -12 z "},"ū":{"ha":696,"x_min":35,"x_max":660,"o":"m 207 818 l 222 931 l 614 931 l 599 818 l 207 818 m 35 114 l 117 694 l 281 694 l 210 186 l 289 111 l 365 175 l 428 175 l 497 694 l 660 694 l 589 192 l 660 0 l 564 0 l 471 118 l 332 -12 l 143 -12 l 35 114 z "},"ų":{"ha":697,"x_min":35,"x_max":660,"o":"m 35 114 l 117 694 l 281 694 l 210 186 l 289 111 l 365 175 l 428 175 l 497 694 l 660 694 l 589 192 l 660 0 l 564 0 l 471 118 l 332 -12 l 143 -12 l 35 114 m 554 -46 l 625 -131 l 517 -278 l 304 -278 l 261 -147 l 326 -147 l 408 -218 l 494 -142 l 440 -83 l 483 -46 l 554 -46 z "},"ů":{"ha":696,"x_min":35,"x_max":660,"o":"m 267 822 l 279 904 l 290 985 l 444 1068 l 576 983 l 565 904 l 553 821 l 399 739 l 267 822 m 346 863 l 410 822 l 486 863 l 492 904 l 497 943 l 433 983 l 357 943 l 346 863 m 143 -12 l 35 114 l 117 694 l 281 694 l 210 186 l 289 111 l 365 175 l 428 175 l 497 694 l 660 694 l 589 192 l 660 0 l 564 0 l 471 118 l 332 -12 l 143 -12 z "},"ũ":{"ha":696,"x_min":35,"x_max":660,"o":"m 228 915 l 336 982 l 508 890 l 547 972 l 618 972 l 601 849 l 493 782 l 308 881 l 281 792 l 210 792 l 228 915 m 35 114 l 117 694 l 281 694 l 210 186 l 289 111 l 365 175 l 428 175 l 497 694 l 660 694 l 589 192 l 660 0 l 564 0 l 471 118 l 332 -12 l 143 -12 l 35 114 z "},"v":{"ha":647,"x_min":49,"x_max":681,"o":"m 251 518 l 329 224 l 518 694 l 681 694 l 400 0 l 290 0 l 208 90 l 49 694 l 131 694 l 251 518 z "},"w":{"ha":958,"x_min":49,"x_max":990,"o":"m 250 518 l 319 233 l 488 694 l 593 532 l 643 233 l 829 694 l 990 694 l 710 0 l 569 0 l 504 325 l 399 0 l 289 0 l 207 90 l 99 503 l 76 592 l 53 681 l 49 694 l 129 694 l 250 518 z "},"ẃ":{"ha":958,"x_min":49,"x_max":990,"o":"m 457 767 l 608 947 l 783 946 l 564 767 l 457 767 m 289 0 l 207 90 l 99 503 l 76 592 l 53 681 l 49 694 l 129 694 l 250 518 l 319 233 l 488 694 l 593 532 l 643 233 l 829 694 l 990 694 l 710 0 l 569 0 l 504 325 l 399 0 l 289 0 z "},"ŵ":{"ha":958,"x_min":49,"x_max":990,"o":"m 458 956 l 632 956 l 733 775 l 626 775 l 533 874 l 414 775 l 307 775 l 458 956 m 250 518 l 319 233 l 488 694 l 593 532 l 643 233 l 829 694 l 990 694 l 710 0 l 569 0 l 504 325 l 399 0 l 289 0 l 207 90 l 99 503 l 76 592 l 53 681 l 49 694 l 129 694 l 250 518 z "},"ẅ":{"ha":958,"x_min":49,"x_max":990,"o":"m 396 768 l 321 828 l 333 921 l 421 956 l 496 896 l 483 804 l 396 768 m 614 768 l 539 828 l 551 921 l 639 956 l 714 896 l 701 804 l 614 768 m 289 0 l 207 90 l 99 503 l 76 592 l 53 681 l 49 694 l 129 694 l 250 518 l 319 233 l 488 694 l 593 532 l 643 233 l 829 694 l 990 694 l 710 0 l 569 0 l 504 325 l 399 0 l 289 0 z "},"ẁ":{"ha":958,"x_min":49,"x_max":990,"o":"m 271 946 l 446 947 l 547 767 l 440 767 l 271 946 m 250 518 l 319 233 l 488 694 l 593 532 l 643 233 l 829 694 l 990 694 l 710 0 l 569 0 l 504 325 l 399 0 l 289 0 l 207 90 l 99 503 l 76 592 l 53 681 l 49 694 l 129 694 l 250 518 z "},"x":{"ha":622,"x_min":-69,"x_max":640,"o":"m -69 0 l 185 332 l 229 315 l 31 694 l 214 694 l 344 444 l 361 561 l 464 694 l 640 694 l 386 365 l 578 0 l 394 0 l 276 224 l 104 0 l -69 0 z "},"y":{"ha":628,"x_min":47,"x_max":681,"o":"m 124 -278 l 251 40 l 207 90 l 47 694 l 129 694 l 250 518 l 326 222 l 517 694 l 681 694 l 286 -278 l 124 -278 z "},"ý":{"ha":628,"x_min":47,"x_max":681,"o":"m 432 947 l 607 946 l 388 767 l 281 767 l 432 947 m 124 -278 l 251 40 l 207 90 l 47 694 l 129 694 l 250 518 l 326 222 l 517 694 l 681 694 l 286 -278 l 124 -278 z "},"ŷ":{"ha":628,"x_min":47,"x_max":681,"o":"m 293 956 l 467 956 l 568 775 l 461 775 l 368 874 l 249 775 l 142 775 l 293 956 m 124 -278 l 251 40 l 207 90 l 47 694 l 129 694 l 250 518 l 326 222 l 517 694 l 681 694 l 286 -278 l 124 -278 z "},"ÿ":{"ha":614,"x_min":47,"x_max":681,"o":"m 240 768 l 165 828 l 178 921 l 265 956 l 340 896 l 328 804 l 240 768 m 458 768 l 383 828 l 396 921 l 483 956 l 558 896 l 546 804 l 458 768 m 124 -278 l 251 40 l 207 90 l 47 694 l 129 694 l 250 518 l 326 222 l 517 694 l 681 694 l 286 -278 l 124 -278 z "},"ỳ":{"ha":628,"x_min":47,"x_max":681,"o":"m 125 946 l 300 947 l 401 767 l 294 767 l 125 946 m 124 -278 l 251 40 l 207 90 l 47 694 l 129 694 l 250 518 l 326 222 l 517 694 l 681 694 l 286 -278 l 124 -278 z "},"z":{"ha":568,"x_min":-12,"x_max":579,"o":"m -12 0 l 6 143 l 399 572 l 325 535 l 75 535 l 92 694 l 579 694 l 564 550 l 161 117 l 235 153 l 488 153 l 472 0 l -12 0 z "},"ź":{"ha":575,"x_min":-12,"x_max":586,"o":"m 260 767 l 411 947 l 586 946 l 367 767 l 260 767 m -12 0 l 6 143 l 399 572 l 325 535 l 75 535 l 92 694 l 579 694 l 564 550 l 161 117 l 235 153 l 488 153 l 472 0 l -12 0 z "},"ž":{"ha":569,"x_min":-12,"x_max":582,"o":"m 257 775 l 156 956 l 263 956 l 354 857 l 475 956 l 582 956 l 431 775 l 257 775 m -12 0 l 6 143 l 399 572 l 325 535 l 75 535 l 92 694 l 579 694 l 564 550 l 161 117 l 235 153 l 488 153 l 472 0 l -12 0 z "},"ż":{"ha":568,"x_min":-12,"x_max":579,"o":"m 335 769 l 260 829 l 272 922 l 360 957 l 435 897 l 422 806 l 335 769 m -12 0 l 6 143 l 399 572 l 325 535 l 75 535 l 92 694 l 579 694 l 564 550 l 161 117 l 235 153 l 488 153 l 472 0 l -12 0 z "},"ﬁ":{"ha":706,"x_min":38,"x_max":686,"o":"m 63 0 l 133 485 l 182 533 l 38 533 l 60 694 l 165 694 l 192 881 l 346 1010 l 535 1010 l 585 886 l 515 818 l 471 818 l 483 907 l 435 944 l 357 878 l 324 649 l 376 694 l 686 694 l 588 0 l 424 0 l 500 533 l 544 607 l 442 533 l 307 533 l 229 0 l 63 0 z "},"ﬂ":{"ha":728,"x_min":44,"x_max":735,"o":"m 51 0 l 122 485 l 171 533 l 44 533 l 67 694 l 154 694 l 181 881 l 335 1010 l 524 1010 l 569 896 l 625 1010 l 735 1010 l 589 0 l 422 0 l 493 485 l 542 533 l 296 533 l 218 0 l 51 0 m 313 649 l 365 694 l 524 694 l 547 850 l 424 944 l 346 878 l 313 649 z "},"π":{"ha":746,"x_min":47,"x_max":774,"o":"m 72 0 l 147 539 l 47 539 l 69 694 l 774 694 l 753 539 l 654 539 l 606 190 l 663 0 l 594 0 l 442 178 l 492 539 l 285 539 l 325 478 l 258 0 l 72 0 z "},"₀":{"ha":440,"x_min":21,"x_max":399,"o":"m 21 -132 l 76 268 l 169 357 l 344 357 l 399 276 l 343 -122 l 257 -207 l 99 -207 l 21 -132 m 304 258 l 249 300 l 154 225 l 107 -114 l 172 -154 l 257 -81 l 304 258 z "},"₁":{"ha":286,"x_min":-40,"x_max":203,"o":"m 138 357 l 203 357 l 165 92 l 125 -207 l 28 -207 l 68 92 l 119 235 l 14 92 l -40 128 l 138 357 z "},"₂":{"ha":382,"x_min":-36,"x_max":317,"o":"m -36 -207 l -18 -82 l 188 110 l 207 246 l 149 318 l 83 263 l 81 193 l 31 193 l 3 263 l 74 357 l 243 357 l 317 271 l 292 90 l 43 -132 l 101 -111 l 282 -111 l 269 -207 l -36 -207 z "},"₃":{"ha":369,"x_min":-24,"x_max":317,"o":"m 46 357 l 272 357 l 317 263 l 167 126 l 238 126 l 310 43 l 288 -124 l 192 -207 l -3 -207 l -24 -114 l 24 -44 l 74 -44 l 57 -115 l 90 -171 l 185 -104 l 201 24 l 124 88 l 69 39 l 32 92 l 219 263 l 32 263 l 46 357 z "},"₄":{"ha":393,"x_min":-32,"x_max":319,"o":"m 239 357 l 304 357 l 256 4 l 319 4 l 307 -79 l 244 -79 l 226 -207 l 129 -207 l 144 -107 l 171 -79 l 13 -79 l -32 -17 l 239 357 m 182 169 l 68 4 l 188 4 l 164 35 l 182 169 z "},"₅":{"ha":383,"x_min":-33,"x_max":311,"o":"m 103 356 l 311 357 l 299 261 l 99 263 l 79 126 l 219 126 l 293 43 l 269 -124 l 174 -207 l -12 -207 l -33 -114 l 14 -44 l 64 -44 l 47 -115 l 78 -167 l 167 -104 l 183 24 l 108 86 l 43 42 l 8 88 l 32 263 l 103 356 z "},"₆":{"ha":408,"x_min":-12,"x_max":329,"o":"m 139 357 l 278 357 l 328 290 l 276 265 l 231 317 l 138 254 l 119 126 l 257 126 l 329 43 l 307 -124 l 211 -207 l 25 -207 l -12 -114 l 42 272 l 139 357 m 85 -115 l 128 -167 l 204 -104 l 221 24 l 160 86 l 108 50 l 85 -115 z "},"₇":{"ha":322,"x_min":-19,"x_max":307,"o":"m -6 357 l 279 357 l 307 297 l 151 158 l 171 158 l 121 -207 l 24 -207 l 78 176 l 174 263 l -19 263 l -6 357 z "},"₈":{"ha":379,"x_min":-33,"x_max":299,"o":"m 104 357 l 236 357 l 299 283 l 282 153 l 204 92 l 297 13 l 279 -128 l 192 -207 l 40 -207 l -33 -115 l -14 19 l 83 94 l 11 174 l 28 292 l 104 357 m 108 276 l 94 174 l 139 136 l 204 188 l 211 249 l 161 310 l 108 276 m 78 -7 l 63 -115 l 106 -167 l 188 -99 l 197 -29 l 136 39 l 78 -7 z "},"₉":{"ha":406,"x_min":-11,"x_max":331,"o":"m 13 272 l 108 357 l 294 357 l 331 264 l 276 -124 l 181 -207 l 42 -207 l -10 -140 l 42 -115 l 89 -167 l 181 -104 l 200 24 l 63 24 l -11 107 l 13 272 m 235 265 l 190 317 l 115 254 l 97 126 l 160 64 l 210 99 l 235 265 z "},"⁰":{"ha":443,"x_min":78,"x_max":454,"o":"m 78 600 l 133 1000 l 226 1089 l 401 1089 l 454 1008 l 400 610 l 313 525 l 154 525 l 78 600 m 360 990 l 306 1032 l 210 957 l 164 618 l 229 578 l 313 651 l 360 990 z "},"¹":{"ha":286,"x_min":35,"x_max":278,"o":"m 213 1089 l 278 1089 l 240 824 l 200 525 l 103 525 l 143 824 l 194 967 l 89 824 l 35 860 l 213 1089 z "},"²":{"ha":382,"x_min":39,"x_max":392,"o":"m 39 525 l 57 650 l 263 842 l 282 978 l 224 1050 l 158 994 l 156 925 l 106 925 l 78 994 l 149 1089 l 318 1089 l 392 1003 l 367 822 l 118 600 l 176 621 l 357 621 l 344 525 l 39 525 z "},"³":{"ha":369,"x_min":51,"x_max":392,"o":"m 121 1089 l 347 1089 l 392 994 l 242 858 l 313 858 l 385 775 l 363 608 l 267 525 l 72 525 l 51 618 l 99 688 l 149 688 l 132 617 l 165 561 l 260 628 l 276 756 l 199 819 l 144 771 l 107 824 l 294 994 l 107 994 l 121 1089 z "},"⁴":{"ha":393,"x_min":43,"x_max":394,"o":"m 314 1089 l 379 1089 l 331 736 l 394 736 l 382 653 l 319 653 l 301 525 l 204 525 l 219 625 l 246 653 l 88 653 l 43 715 l 314 1089 m 257 901 l 143 736 l 263 736 l 239 767 l 257 901 z "},"⁵":{"ha":383,"x_min":42,"x_max":386,"o":"m 178 1088 l 386 1089 l 374 993 l 174 994 l 154 858 l 294 858 l 367 775 l 344 608 l 249 525 l 63 525 l 42 618 l 89 688 l 139 688 l 122 617 l 153 565 l 242 628 l 258 756 l 183 818 l 118 774 l 83 819 l 107 994 l 178 1088 z "},"⁶":{"ha":408,"x_min":63,"x_max":404,"o":"m 214 1089 l 353 1089 l 403 1022 l 351 997 l 306 1049 l 213 986 l 194 858 l 332 858 l 404 775 l 382 608 l 286 525 l 100 525 l 63 618 l 117 1004 l 214 1089 m 160 617 l 203 565 l 279 628 l 296 756 l 235 818 l 183 782 l 160 617 z "},"⁷":{"ha":322,"x_min":56,"x_max":381,"o":"m 69 1094 l 354 1094 l 381 1035 l 226 896 l 246 896 l 196 532 l 99 532 l 153 915 l 249 1000 l 56 1000 l 69 1094 z "},"⁸":{"ha":379,"x_min":42,"x_max":374,"o":"m 179 1089 l 311 1089 l 374 1015 l 357 885 l 279 824 l 372 744 l 354 604 l 267 525 l 115 525 l 42 617 l 61 751 l 158 826 l 86 906 l 103 1024 l 179 1089 m 183 1008 l 169 906 l 214 868 l 279 919 l 286 981 l 236 1042 l 183 1008 m 153 725 l 138 617 l 181 565 l 263 633 l 272 703 l 211 771 l 153 725 z "},"⁹":{"ha":406,"x_min":64,"x_max":406,"o":"m 88 1004 l 183 1089 l 369 1089 l 406 996 l 351 608 l 256 525 l 117 525 l 65 592 l 117 617 l 164 565 l 256 628 l 275 756 l 138 756 l 64 839 l 88 1004 m 310 997 l 265 1049 l 190 986 l 172 858 l 235 796 l 285 831 l 310 997 z "},"½":{"ha":954,"x_min":35,"x_max":908,"o":"m 199 -18 l 585 1003 l 665 968 l 281 -50 l 199 -18 m 213 947 l 278 947 l 240 681 l 200 383 l 103 383 l 143 681 l 194 825 l 89 681 l 35 717 l 213 947 m 556 0 l 574 125 l 778 317 l 799 453 l 740 525 l 675 469 l 672 400 l 622 400 l 594 469 l 665 564 l 835 564 l 908 478 l 883 297 l 635 75 l 693 96 l 874 96 l 861 0 l 556 0 z "},"⅓":{"ha":969,"x_min":35,"x_max":944,"o":"m 308 -50 l 226 -18 l 613 1003 l 693 968 l 308 -50 m 103 383 l 143 681 l 194 825 l 89 681 l 35 717 l 213 947 l 278 947 l 240 681 l 200 383 l 103 383 m 625 -8 l 604 85 l 651 154 l 701 154 l 685 83 l 718 28 l 813 94 l 829 222 l 751 286 l 697 238 l 660 290 l 847 461 l 660 461 l 674 556 l 900 556 l 944 461 l 794 325 l 865 325 l 939 242 l 915 75 l 819 -8 l 625 -8 z "},"⅔":{"ha":1001,"x_min":25,"x_max":964,"o":"m 360 -50 l 278 -18 l 664 1003 l 744 968 l 360 -50 m 25 382 l 43 507 l 249 699 l 268 835 l 210 907 l 144 851 l 142 782 l 92 782 l 64 851 l 135 946 l 304 946 l 378 860 l 353 679 l 104 457 l 163 478 l 343 478 l 331 382 l 25 382 m 644 -8 l 624 85 l 671 154 l 721 154 l 704 83 l 738 28 l 832 94 l 849 222 l 771 286 l 718 238 l 679 290 l 867 461 l 679 461 l 693 556 l 919 556 l 964 461 l 814 325 l 885 325 l 958 242 l 935 75 l 839 -8 l 644 -8 z "},"¼":{"ha":889,"x_min":3,"x_max":822,"o":"m 276 -50 l 194 -18 l 581 1003 l 661 968 l 276 -50 m 71 383 l 113 681 l 163 825 l 57 681 l 3 717 l 181 947 l 246 947 l 208 681 l 168 383 l 71 383 m 742 556 l 807 556 l 758 203 l 822 203 l 810 119 l 747 119 l 729 -8 l 632 -8 l 646 92 l 674 119 l 514 119 l 471 182 l 742 556 m 683 368 l 571 203 l 689 203 l 665 233 l 683 368 z "},"¾":{"ha":990,"x_min":49,"x_max":924,"o":"m 378 -50 l 296 -18 l 682 1003 l 763 968 l 378 -50 m 69 374 l 49 467 l 96 536 l 146 536 l 129 465 l 163 410 l 257 476 l 274 604 l 196 668 l 143 619 l 104 672 l 292 843 l 104 843 l 118 938 l 344 938 l 389 843 l 239 707 l 310 707 l 383 624 l 360 457 l 264 374 l 69 374 m 843 556 l 908 556 l 860 203 l 924 203 l 911 119 l 849 119 l 831 -8 l 733 -8 l 747 92 l 775 119 l 615 119 l 572 182 l 843 556 m 785 368 l 672 203 l 790 203 l 767 233 l 785 368 z "},"⅕":{"ha":949,"x_min":35,"x_max":896,"o":"m 281 -50 l 199 -18 l 585 1003 l 665 968 l 281 -50 m 103 383 l 143 681 l 194 825 l 89 681 l 35 717 l 213 947 l 278 947 l 240 681 l 200 383 l 103 383 m 688 554 l 896 556 l 883 460 l 683 461 l 664 325 l 804 325 l 878 242 l 854 75 l 758 -8 l 572 -8 l 551 85 l 599 154 l 649 154 l 632 83 l 663 32 l 751 94 l 768 222 l 693 285 l 628 240 l 593 286 l 617 461 l 688 554 z "},"⅖":{"ha":1007,"x_min":25,"x_max":947,"o":"m 368 -50 l 286 -18 l 672 1003 l 753 968 l 368 -50 m 25 382 l 43 507 l 249 699 l 268 835 l 210 907 l 144 851 l 143 782 l 92 782 l 64 851 l 136 946 l 306 946 l 379 860 l 353 679 l 106 457 l 163 478 l 344 478 l 331 382 l 25 382 m 624 -8 l 603 85 l 650 154 l 700 154 l 683 83 l 714 32 l 803 94 l 819 222 l 744 285 l 679 240 l 644 286 l 668 461 l 739 554 l 947 556 l 935 460 l 735 461 l 715 325 l 856 325 l 929 242 l 906 75 l 810 -8 l 624 -8 z "},"⅗":{"ha":1081,"x_min":49,"x_max":1006,"o":"m 394 -50 l 313 -18 l 699 1003 l 779 968 l 394 -50 m 69 374 l 49 467 l 96 536 l 146 536 l 129 465 l 163 410 l 257 476 l 274 604 l 196 668 l 143 619 l 104 672 l 292 843 l 104 843 l 118 938 l 344 938 l 389 843 l 239 707 l 310 707 l 383 624 l 360 457 l 264 374 l 69 374 m 681 -8 l 660 85 l 707 154 l 758 154 l 740 83 l 771 32 l 860 94 l 878 222 l 801 285 l 736 240 l 701 286 l 725 461 l 796 554 l 1006 556 l 992 460 l 792 461 l 774 325 l 913 325 l 986 242 l 963 75 l 867 -8 l 681 -8 z "},"⅘":{"ha":1049,"x_min":56,"x_max":982,"o":"m 385 -50 l 303 -18 l 689 1003 l 769 968 l 385 -50 m 217 374 l 231 474 l 258 501 l 99 501 l 56 564 l 326 938 l 392 938 l 343 585 l 407 585 l 394 501 l 332 501 l 314 374 l 217 374 m 156 585 l 274 585 l 250 615 l 268 750 l 156 585 m 657 -8 l 636 85 l 683 154 l 735 154 l 717 83 l 747 32 l 836 94 l 854 222 l 778 285 l 713 240 l 678 286 l 701 461 l 772 554 l 982 556 l 968 460 l 768 461 l 750 325 l 889 325 l 963 242 l 939 75 l 843 -8 l 657 -8 z "},"⅙":{"ha":933,"x_min":35,"x_max":868,"o":"m 268 -50 l 186 -18 l 572 1003 l 653 968 l 268 -50 m 213 947 l 278 947 l 240 681 l 200 383 l 103 383 l 143 681 l 194 825 l 89 681 l 35 717 l 213 947 m 676 564 l 815 564 l 865 497 l 814 472 l 768 524 l 675 461 l 657 333 l 794 333 l 868 250 l 844 83 l 749 0 l 563 0 l 525 93 l 581 479 l 676 564 m 622 92 l 667 40 l 742 103 l 758 231 l 697 293 l 646 257 l 622 92 z "},"⅚":{"ha":1047,"x_min":42,"x_max":983,"o":"m 376 -50 l 294 -18 l 681 1003 l 761 968 l 376 -50 m 63 374 l 42 467 l 89 536 l 139 536 l 122 465 l 153 414 l 242 476 l 258 604 l 183 667 l 118 622 l 83 668 l 107 843 l 178 936 l 386 938 l 374 842 l 174 843 l 154 707 l 294 707 l 368 624 l 344 457 l 249 374 l 63 374 m 792 564 l 931 564 l 981 497 l 929 472 l 883 524 l 790 461 l 772 333 l 910 333 l 983 250 l 960 83 l 864 0 l 678 0 l 640 93 l 696 479 l 792 564 m 738 92 l 782 40 l 857 103 l 874 231 l 813 293 l 761 257 l 738 92 z "},"⅛":{"ha":986,"x_min":35,"x_max":933,"o":"m 308 -50 l 226 -18 l 613 1003 l 693 968 l 308 -50 m 213 947 l 278 947 l 240 681 l 200 383 l 103 383 l 143 681 l 194 825 l 89 681 l 35 717 l 213 947 m 739 564 l 869 564 l 933 490 l 915 360 l 839 299 l 932 219 l 913 79 l 825 0 l 674 0 l 600 92 l 621 226 l 718 301 l 646 381 l 663 499 l 739 564 m 742 483 l 729 381 l 772 343 l 838 394 l 844 456 l 794 517 l 742 483 m 711 200 l 697 92 l 740 40 l 822 108 l 832 178 l 769 246 l 711 200 z "},"⅜":{"ha":992,"x_min":49,"x_max":929,"o":"m 363 -50 l 281 -18 l 667 1003 l 747 968 l 363 -50 m 69 374 l 49 467 l 96 536 l 146 536 l 129 465 l 163 410 l 257 476 l 274 604 l 196 668 l 143 619 l 104 672 l 292 843 l 104 843 l 118 938 l 344 938 l 389 843 l 239 707 l 310 707 l 383 624 l 360 457 l 264 374 l 69 374 m 669 0 l 596 92 l 617 226 l 714 301 l 642 381 l 658 499 l 735 564 l 865 564 l 929 490 l 911 360 l 835 299 l 928 219 l 908 79 l 821 0 l 669 0 m 768 343 l 833 394 l 842 456 l 790 517 l 739 483 l 725 381 l 768 343 m 736 40 l 818 108 l 828 178 l 765 246 l 707 200 l 693 92 l 736 40 z "},"⅝":{"ha":1001,"x_min":54,"x_max":935,"o":"m 358 -50 l 276 -18 l 663 1003 l 743 968 l 358 -50 m 75 374 l 54 467 l 101 536 l 151 536 l 135 465 l 165 414 l 254 476 l 271 604 l 196 667 l 131 622 l 96 668 l 119 843 l 190 936 l 399 938 l 386 842 l 186 843 l 167 707 l 307 707 l 381 624 l 357 457 l 261 374 l 75 374 m 675 0 l 601 92 l 622 226 l 719 301 l 647 381 l 664 499 l 740 564 l 871 564 l 935 490 l 917 360 l 840 299 l 933 219 l 914 79 l 826 0 l 675 0 m 774 343 l 839 394 l 847 456 l 796 517 l 744 483 l 731 381 l 774 343 m 742 40 l 824 108 l 833 178 l 771 246 l 713 200 l 699 92 l 742 40 z "},"⅞":{"ha":982,"x_min":56,"x_max":928,"o":"m 303 -50 l 221 -18 l 607 1003 l 688 968 l 303 -50 m 99 382 l 153 765 l 249 851 l 56 851 l 69 946 l 354 946 l 382 886 l 226 747 l 246 747 l 196 382 l 99 382 m 668 0 l 596 92 l 615 226 l 713 301 l 640 381 l 657 499 l 733 564 l 864 564 l 928 490 l 910 360 l 833 299 l 926 219 l 907 79 l 819 0 l 668 0 m 767 343 l 832 394 l 840 456 l 789 517 l 738 483 l 724 381 l 767 343 m 735 40 l 817 108 l 826 178 l 764 246 l 706 200 l 692 92 l 735 40 z "},"*":{"ha":422,"x_min":63,"x_max":429,"o":"m 253 600 l 186 610 l 204 736 l 88 689 l 63 750 l 182 797 l 81 876 l 122 928 l 221 847 l 239 975 l 306 965 l 286 836 l 404 886 l 429 825 l 308 778 l 411 699 l 369 647 l 271 728 l 253 600 z "},"\\":{"ha":589,"x_min":103,"x_max":481,"o":"m 103 972 l 250 972 l 481 0 l 333 0 l 103 972 z "},"·":{"ha":450,"x_min":96,"x_max":354,"o":"m 206 254 l 96 342 l 115 479 l 244 531 l 354 443 l 335 306 l 206 254 z "},"•":{"ha":472,"x_min":69,"x_max":403,"o":"m 211 224 l 69 336 l 94 514 l 261 581 l 403 468 l 378 290 l 211 224 z "},":":{"ha":400,"x_min":42,"x_max":372,"o":"m 242 435 l 144 511 l 163 632 l 275 678 l 372 601 l 354 481 l 242 435 m 139 -22 l 42 54 l 60 175 l 172 221 l 269 144 l 251 24 l 139 -22 z "},",":{"ha":292,"x_min":-43,"x_max":225,"o":"m -43 -200 l 18 -25 l 76 144 l 225 144 l 165 -28 l 33 -200 l -43 -200 z "},"…":{"ha":950,"x_min":0,"x_max":881,"o":"m 97 -21 l 0 56 l 18 176 l 131 222 l 228 146 l 210 25 l 97 -21 m 750 -21 l 653 56 l 671 176 l 783 222 l 881 146 l 863 25 l 750 -21 m 424 -24 l 326 53 l 344 174 l 457 219 l 554 143 l 536 22 l 424 -24 z "},"!":{"ha":414,"x_min":56,"x_max":372,"o":"m 113 272 l 210 972 l 372 972 l 275 272 l 113 272 m 153 -22 l 56 54 l 74 175 l 186 221 l 283 144 l 265 24 l 153 -22 z "},"¡":{"ha":411,"x_min":42,"x_max":356,"o":"m 225 472 l 128 549 l 146 669 l 258 715 l 356 639 l 338 518 l 225 472 m 42 -278 l 139 422 l 301 422 l 204 -278 l 42 -278 z "},"#":{"ha":819,"x_min":25,"x_max":847,"o":"m 122 0 l 160 269 l 25 269 l 43 397 l 178 397 l 203 574 l 68 574 l 86 701 l 221 701 l 258 972 l 417 972 l 379 701 l 554 701 l 592 972 l 750 972 l 714 701 l 847 701 l 829 574 l 650 574 l 688 521 l 671 397 l 804 397 l 786 269 l 607 269 l 644 217 l 614 0 l 456 0 l 493 269 l 274 269 l 311 217 l 281 0 l 122 0 m 336 397 l 511 397 l 536 574 l 317 574 l 354 521 l 336 397 z "},".":{"ha":367,"x_min":28,"x_max":256,"o":"m 125 -22 l 28 54 l 46 175 l 158 221 l 256 144 l 238 24 l 125 -22 z "},"?":{"ha":622,"x_min":56,"x_max":594,"o":"m 161 972 l 486 972 l 594 836 l 556 567 l 339 411 l 283 294 l 168 294 l 188 432 l 396 586 l 428 800 l 308 904 l 232 818 l 228 700 l 143 700 l 56 817 l 161 972 m 186 -22 l 89 54 l 107 175 l 219 221 l 317 144 l 299 24 l 186 -22 z "},"¿":{"ha":622,"x_min":28,"x_max":567,"o":"m 436 717 l 533 640 l 515 519 l 403 474 l 306 550 l 324 671 l 436 717 m 461 -278 l 136 -278 l 28 -142 l 67 128 l 283 283 l 339 400 l 454 400 l 435 263 l 226 108 l 194 -106 l 314 -210 l 390 -124 l 394 -6 l 479 -6 l 567 -122 l 461 -278 z "},"\"":{"ha":558,"x_min":86,"x_max":583,"o":"m 86 628 l 206 972 l 354 972 l 296 803 l 163 628 l 86 628 m 315 628 l 435 972 l 583 972 l 525 803 l 392 628 l 315 628 z "},"'":{"ha":278,"x_min":76,"x_max":344,"o":"m 76 628 l 196 972 l 344 972 l 286 803 l 153 628 l 76 628 z "},";":{"ha":407,"x_min":-18,"x_max":382,"o":"m 251 435 l 154 511 l 172 632 l 285 678 l 382 601 l 364 481 l 251 435 m -18 -200 l 101 144 l 250 144 l 190 -26 l 58 -200 l -18 -200 z "},"/":{"ha":589,"x_min":-24,"x_max":628,"o":"m 481 972 l 628 972 l 122 0 l -24 0 l 228 486 l 481 972 z "},"_":{"ha":778,"x_min":69,"x_max":707,"o":"m 69 -165 l 90 -14 l 707 -14 l 686 -165 l 69 -165 z "},"{":{"ha":525,"x_min":6,"x_max":588,"o":"m 6 361 l 207 463 l 257 835 l 419 976 l 543 976 l 588 860 l 524 822 l 433 911 l 368 422 l 99 361 l 200 361 l 342 233 l 288 -179 l 392 -90 l 465 -133 l 383 -244 l 231 -244 l 121 -118 l 171 235 l 6 361 z "},"}":{"ha":542,"x_min":-62,"x_max":536,"o":"m 536 361 l 335 235 l 286 -118 l 142 -244 l -11 -244 l -62 -133 l 24 -90 l 103 -179 l 164 233 l 342 361 l 443 361 l 190 422 l 263 911 l 147 822 l 94 860 l 172 976 l 296 976 l 418 835 l 364 463 l 536 361 z "},"[":{"ha":433,"x_min":17,"x_max":479,"o":"m 17 -278 l 106 353 l 193 982 l 479 982 l 461 851 l 342 851 l 272 353 l 201 -147 l 321 -147 l 303 -278 l 17 -278 z "},"]":{"ha":433,"x_min":-46,"x_max":417,"o":"m 131 982 l 417 982 l 329 353 l 240 -278 l -46 -278 l -28 -147 l 92 -147 l 163 353 l 232 851 l 113 851 l 131 982 z "},"(":{"ha":461,"x_min":58,"x_max":490,"o":"m 154 -243 l 58 165 l 86 365 l 115 568 l 325 976 l 490 976 l 282 568 l 253 365 l 225 164 l 321 -243 l 154 -243 z "},")":{"ha":463,"x_min":-28,"x_max":406,"o":"m 139 -243 l -28 -243 l 183 164 l 211 365 l 239 568 l 146 976 l 311 976 l 406 568 l 378 365 l 350 165 l 139 -243 z "},"—":{"ha":1025,"x_min":42,"x_max":969,"o":"m 42 300 l 63 451 l 969 451 l 949 300 l 42 300 z "},"–":{"ha":681,"x_min":42,"x_max":625,"o":"m 42 331 l 65 497 l 625 497 l 601 331 l 42 331 z "},"-":{"ha":518,"x_min":18,"x_max":500,"o":"m 18 300 l 39 451 l 500 451 l 479 300 l 18 300 z "},"«":{"ha":782,"x_min":43,"x_max":763,"o":"m 414 639 l 450 568 l 142 361 l 243 361 l 433 82 l 236 82 l 43 361 l 300 639 l 414 639 m 726 639 l 763 568 l 454 361 l 556 361 l 746 82 l 549 82 l 356 361 l 613 639 l 726 639 z "},"»":{"ha":844,"x_min":19,"x_max":800,"o":"m 196 639 l 310 639 l 488 361 l 217 82 l 19 82 l 289 361 l 390 361 l 139 568 l 196 639 m 508 639 l 622 639 l 800 361 l 529 82 l 332 82 l 601 361 l 703 361 l 451 568 l 508 639 z "},"‹":{"ha":469,"x_min":43,"x_max":450,"o":"m 414 639 l 450 568 l 142 361 l 243 361 l 433 82 l 236 82 l 43 361 l 300 639 l 414 639 z "},"›":{"ha":529,"x_min":19,"x_max":488,"o":"m 196 639 l 310 639 l 488 361 l 217 82 l 19 82 l 289 361 l 390 361 l 139 568 l 196 639 z "},"„":{"ha":558,"x_min":-33,"x_max":464,"o":"m -33 -200 l 86 144 l 235 144 l 176 -25 l 43 -200 l -33 -200 m 196 -200 l 315 144 l 464 144 l 406 -25 l 272 -200 l 196 -200 z "},"“":{"ha":558,"x_min":86,"x_max":583,"o":"m 86 628 l 206 972 l 354 972 l 296 803 l 163 628 l 86 628 m 315 628 l 435 972 l 583 972 l 525 803 l 392 628 l 315 628 z "},"”":{"ha":558,"x_min":86,"x_max":583,"o":"m 86 628 l 206 972 l 354 972 l 296 803 l 163 628 l 86 628 m 315 628 l 435 972 l 583 972 l 525 803 l 392 628 l 315 628 z "},"‘":{"ha":329,"x_min":86,"x_max":354,"o":"m 86 628 l 149 803 l 206 972 l 354 972 l 296 803 l 163 628 l 86 628 z "},"’":{"ha":329,"x_min":86,"x_max":354,"o":"m 86 628 l 149 803 l 206 972 l 354 972 l 296 803 l 163 628 l 86 628 z "},"‚":{"ha":329,"x_min":-33,"x_max":235,"o":"m -33 -200 l 86 144 l 235 144 l 176 -25 l 43 -200 l -33 -200 z "},"€":{"ha":831,"x_min":57,"x_max":824,"o":"m 647 275 l 721 275 l 754 146 l 611 0 l 272 0 l 157 133 l 183 324 l 57 324 l 72 435 l 197 435 l 207 503 l 82 503 l 97 614 l 222 614 l 253 840 l 404 972 l 725 972 l 824 815 l 751 699 l 667 699 l 685 776 l 567 871 l 424 782 l 401 614 l 633 614 l 618 503 l 386 503 l 376 435 l 608 435 l 593 324 l 361 324 l 347 219 l 481 92 l 622 176 l 647 275 z "},"¢":{"ha":564,"x_min":28,"x_max":565,"o":"m 338 60 l 439 144 l 513 101 l 431 -10 l 328 -10 l 313 -119 l 229 -119 l 244 -10 l 150 -10 l 28 131 l 94 567 l 256 707 l 346 707 l 363 824 l 446 824 l 429 707 l 521 707 l 565 590 l 501 553 l 424 629 l 418 625 l 338 60 m 210 163 l 263 118 l 325 561 l 264 519 l 210 163 z "},"¤":{"ha":851,"x_min":35,"x_max":817,"o":"m 35 58 l 189 211 l 92 310 l 169 604 l 35 742 l 83 790 l 222 649 l 510 726 l 606 629 l 768 789 l 815 739 l 654 581 l 753 481 l 678 196 l 817 54 l 767 7 l 632 144 l 335 64 l 238 163 l 83 10 l 35 58 m 217 342 l 368 189 l 574 246 l 628 449 l 476 601 l 271 544 l 217 342 z "},"$":{"ha":724,"x_min":47,"x_max":703,"o":"m 422 571 l 626 513 l 674 458 l 631 140 l 469 0 l 342 0 l 325 -118 l 256 -118 l 272 0 l 89 0 l 47 156 l 147 272 l 232 272 l 203 154 l 282 68 l 332 421 l 125 472 l 78 526 l 119 832 l 279 972 l 410 972 l 421 1056 l 490 1056 l 479 972 l 660 972 l 703 817 l 603 700 l 518 700 l 547 818 l 469 894 l 468 893 l 422 571 m 319 800 l 283 526 l 350 551 l 392 846 l 319 800 m 471 200 l 494 379 l 399 403 l 358 122 l 471 200 z "},"ƒ":{"ha":683,"x_min":-28,"x_max":739,"o":"m -28 -154 l 42 -86 l 86 -86 l 74 -175 l 122 -212 l 206 -115 l 290 485 l 338 543 l 192 543 l 213 694 l 319 694 l 346 881 l 500 1010 l 689 1010 l 739 886 l 669 818 l 625 818 l 638 907 l 589 944 l 511 878 l 479 650 l 529 694 l 682 694 l 658 607 l 567 543 l 464 543 l 365 -149 l 211 -278 l 22 -278 l -28 -154 z "},"£":{"ha":843,"x_min":67,"x_max":799,"o":"m 67 0 l 72 43 l 176 103 l 210 340 l 257 388 l 119 388 l 135 497 l 278 497 l 242 549 l 279 815 l 438 954 l 733 954 l 799 799 l 682 639 l 614 639 l 636 800 l 558 876 l 433 761 l 396 496 l 646 496 l 631 386 l 381 386 l 347 153 l 675 153 l 654 0 l 67 0 z "},"¥":{"ha":733,"x_min":56,"x_max":733,"o":"m 733 972 l 539 492 l 688 492 l 671 382 l 494 382 l 461 299 l 658 299 l 642 189 l 417 189 l 340 0 l 178 0 l 254 189 l 60 189 l 76 299 l 272 299 l 218 358 l 213 382 l 89 382 l 106 492 l 183 492 l 56 972 l 140 972 l 272 796 l 351 492 l 376 492 l 571 972 l 733 972 z "},"+":{"ha":775,"x_min":69,"x_max":704,"o":"m 271 60 l 297 251 l 343 300 l 69 300 l 88 436 l 368 436 l 331 488 l 358 676 l 503 676 l 468 436 l 704 436 l 686 300 l 449 300 l 415 60 l 271 60 z "},"−":{"ha":775,"x_min":69,"x_max":704,"o":"m 69 300 l 88 436 l 704 436 l 686 300 l 69 300 z "},"×":{"ha":731,"x_min":72,"x_max":657,"o":"m 160 81 l 72 182 l 226 318 l 289 325 l 122 518 l 232 615 l 403 417 l 417 485 l 569 618 l 657 515 l 463 346 l 607 179 l 497 82 l 353 250 l 160 81 z "},"÷":{"ha":775,"x_min":69,"x_max":704,"o":"m 414 493 l 317 569 l 335 690 l 447 736 l 544 660 l 526 539 l 414 493 m 69 300 l 88 436 l 704 436 l 686 300 l 69 300 m 340 6 l 243 82 l 261 203 l 374 249 l 471 172 l 453 51 l 340 6 z "},"=":{"ha":775,"x_min":50,"x_max":724,"o":"m 88 432 l 107 568 l 724 568 l 704 432 l 88 432 m 50 168 l 69 304 l 686 304 l 667 168 l 50 168 z "},"≠":{"ha":907,"x_min":69,"x_max":838,"o":"m 554 432 l 486 300 l 704 300 l 686 164 l 415 164 l 350 39 l 215 39 l 281 164 l 69 164 l 88 300 l 351 300 l 419 432 l 203 432 l 221 568 l 490 568 l 551 686 l 686 686 l 625 568 l 838 568 l 819 432 l 554 432 z "},">":{"ha":775,"x_min":36,"x_max":706,"o":"m 36 72 l 58 235 l 506 371 l 96 508 l 118 663 l 706 436 l 688 300 l 36 72 z "},"<":{"ha":775,"x_min":68,"x_max":738,"o":"m 632 65 l 68 300 l 86 436 l 738 663 l 715 501 l 267 364 l 678 228 l 632 65 z "},"≥":{"ha":775,"x_min":29,"x_max":719,"o":"m 53 183 l 75 343 l 483 451 l 106 561 l 128 718 l 719 519 l 700 383 l 53 183 m 29 0 l 47 136 l 664 136 l 646 0 l 29 0 z "},"≤":{"ha":775,"x_min":28,"x_max":747,"o":"m 672 183 l 81 383 l 100 519 l 747 718 l 725 561 l 317 451 l 694 343 l 672 183 m 644 0 l 28 0 l 47 136 l 664 136 l 644 0 z "},"±":{"ha":772,"x_min":28,"x_max":718,"o":"m 297 226 l 311 349 l 357 397 l 83 397 l 101 533 l 382 533 l 344 585 l 364 704 l 508 704 l 482 533 l 718 533 l 700 397 l 463 397 l 442 226 l 297 226 m 28 0 l 47 136 l 664 136 l 644 0 l 28 0 z "},"≈":{"ha":683,"x_min":43,"x_max":639,"o":"m 514 364 l 142 476 l 114 388 l 43 388 l 61 511 l 169 592 l 529 486 l 568 568 l 639 568 l 622 444 l 514 364 m 514 100 l 142 213 l 114 124 l 43 124 l 61 247 l 169 328 l 529 222 l 568 304 l 639 304 l 622 181 l 514 100 z "},"~":{"ha":724,"x_min":64,"x_max":660,"o":"m 190 475 l 550 369 l 589 451 l 660 451 l 643 328 l 535 247 l 163 360 l 135 271 l 64 271 l 82 394 l 190 475 z "},"¬":{"ha":708,"x_min":42,"x_max":667,"o":"m 444 213 l 475 425 l 42 425 l 65 597 l 667 597 l 613 213 l 444 213 z "},"∫":{"ha":711,"x_min":-28,"x_max":739,"o":"m 206 -115 l 346 881 l 500 1010 l 689 1010 l 739 886 l 669 818 l 625 818 l 638 907 l 589 944 l 511 878 l 365 -149 l 211 -278 l 22 -278 l -28 -154 l 42 -86 l 86 -86 l 74 -175 l 122 -212 l 206 -115 z "},"√":{"ha":754,"x_min":49,"x_max":851,"o":"m 251 518 l 329 225 l 642 999 l 851 999 l 828 833 l 739 833 l 386 0 l 290 0 l 208 90 l 49 694 l 131 694 l 251 518 z "},"µ":{"ha":674,"x_min":-42,"x_max":636,"o":"m 556 114 l 411 -12 l 222 -12 l 163 64 l 122 -278 l -42 -278 l -39 -264 l -28 -175 l 93 694 l 256 694 l 179 175 l 242 175 l 300 111 l 400 186 l 472 694 l 636 694 l 556 114 z "},"%":{"ha":1015,"x_min":60,"x_max":928,"o":"m 263 -18 l 649 1003 l 729 968 l 344 -50 l 263 -18 m 60 458 l 115 857 l 208 947 l 383 947 l 438 865 l 382 467 l 296 383 l 138 383 l 60 458 m 343 847 l 288 889 l 193 815 l 146 475 l 211 435 l 296 510 l 343 847 m 551 75 l 606 475 l 699 564 l 874 564 l 928 483 l 872 85 l 786 0 l 628 0 l 551 75 m 833 465 l 779 507 l 683 432 l 638 93 l 701 53 l 786 126 l 833 465 z "},"‰":{"ha":1410,"x_min":60,"x_max":1301,"o":"m 263 -18 l 649 1003 l 729 968 l 344 -50 l 263 -18 m 60 458 l 115 857 l 208 947 l 383 947 l 438 865 l 382 467 l 296 383 l 138 383 l 60 458 m 343 847 l 288 889 l 193 815 l 146 475 l 211 435 l 296 510 l 343 847 m 551 75 l 606 475 l 699 564 l 874 564 l 928 483 l 872 85 l 786 0 l 628 0 l 551 75 m 925 75 l 979 475 l 1072 564 l 1247 564 l 1301 483 l 1246 85 l 1160 0 l 1001 0 l 925 75 m 833 465 l 779 507 l 683 432 l 638 93 l 701 53 l 786 126 l 833 465 m 1207 465 l 1153 507 l 1057 432 l 1011 93 l 1075 53 l 1160 126 l 1207 465 z "},"◊":{"ha":775,"x_min":82,"x_max":692,"o":"m 282 -12 l 82 485 l 422 982 l 492 982 l 692 485 l 351 -12 l 282 -12 m 350 224 l 528 485 l 424 747 l 246 485 l 350 224 z "},"":{"ha":1011,"x_min":65,"x_max":942,"o":"m 565 393 q 581 373 571 385 q 594 353 590 361 q 661 271 621 301 q 690 239 681 256 q 704 194 699 225 q 715 136 713 156 l 721 107 q 733 56 725 81 q 741 44 735 50 q 753 38 747 39 l 754 38 q 772 57 767 38 l 775 75 l 785 133 q 792 115 789 126 q 799 94 796 103 q 822 38 813 56 q 832 27 825 31 q 846 28 839 24 q 856 38 851 32 q 861 49 861 43 l 861 64 q 860 103 861 90 l 858 115 q 868 129 858 125 q 875 144 872 133 q 878 178 878 167 q 864 250 878 217 q 839 306 861 258 q 879 270 865 286 q 896 229 893 254 q 897 222 896 225 q 900 217 899 219 q 925 204 910 203 q 940 224 938 208 q 942 246 942 231 q 911 326 942 292 l 865 379 l 753 517 q 739 542 740 532 q 740 625 738 569 l 742 649 q 728 674 742 667 q 740 696 733 686 q 735 701 740 696 l 722 681 l 701 697 l 711 719 l 707 721 l 694 701 q 682 706 692 703 q 669 715 672 710 l 668 719 q 669 731 668 726 q 672 740 671 736 q 668 742 671 742 l 660 717 q 633 719 640 719 l 628 753 q 624 751 626 751 q 625 719 624 731 l 597 715 q 590 726 593 721 q 585 736 588 732 q 581 735 582 736 l 589 711 q 576 705 583 708 q 561 696 569 701 l 546 710 l 543 707 l 553 692 l 535 672 l 517 689 l 513 686 l 529 667 q 524 655 526 661 q 518 642 521 649 l 497 582 q 475 521 486 549 q 465 497 472 514 q 457 465 457 481 q 461 444 457 456 q 403 526 425 483 q 344 653 381 568 l 354 672 q 350 675 351 675 l 335 657 l 315 671 q 324 694 317 674 l 321 696 l 308 674 l 281 686 l 285 711 q 281 713 283 713 l 272 688 q 246 689 254 688 q 239 721 240 711 l 233 721 l 238 690 q 218 682 228 682 q 196 704 204 682 l 193 700 l 203 678 l 175 660 l 160 674 l 157 671 l 169 654 l 151 635 l 132 650 l 128 647 l 146 628 l 142 628 l 150 582 l 163 542 l 179 481 q 183 453 183 467 q 176 426 183 438 l 150 385 q 97 301 119 335 q 69 188 65 253 q 93 76 75 133 q 125 7 100 51 q 138 -6 129 0 q 154 -14 146 -12 q 176 -26 169 -18 q 200 -46 188 -37 q 225 -50 217 -51 q 233 -47 233 -47 q 246 -51 240 -47 q 258 -57 257 -57 q 274 -40 267 -57 q 275 -37 275 -39 q 278 -35 275 -36 q 286 -15 286 -28 q 281 6 286 -4 q 250 83 260 53 q 244 115 244 106 q 250 146 244 126 q 272 186 257 169 q 302 217 286 203 q 324 236 318 231 l 353 267 l 381 297 q 388 302 382 300 q 396 303 393 304 q 404 290 400 303 q 407 269 407 283 q 408 218 408 253 l 408 167 q 415 126 411 139 q 443 108 419 111 q 464 126 458 108 q 472 167 469 144 l 474 207 q 476 288 474 235 q 482 385 479 351 q 490 372 490 379 q 508 292 497 344 q 515 263 511 281 q 525 221 518 244 q 549 201 531 201 q 563 207 558 201 q 571 224 567 213 q 581 285 581 253 q 572 344 581 315 l 560 390 l 565 393 m 629 711 q 617 671 617 690 q 633 628 617 651 q 618 626 628 626 q 576 635 596 626 q 532 658 556 643 q 629 711 575 711 m 647 711 q 690 696 672 707 q 728 665 708 685 q 651 626 694 632 q 663 668 663 649 q 647 711 663 690 m 151 621 q 193 665 167 649 q 242 678 219 682 q 231 635 231 647 q 247 599 231 619 q 224 596 233 596 q 151 621 188 596 m 256 681 q 343 642 301 681 q 313 614 333 626 q 268 596 293 601 q 276 631 276 613 q 256 681 276 656 m 551 408 q 558 372 554 386 q 572 283 572 324 q 569 247 572 260 q 561 218 568 233 q 549 207 554 207 q 535 217 542 207 q 522 247 526 232 l 518 275 q 500 363 507 333 q 485 413 496 379 q 471 453 479 425 q 468 472 468 464 q 471 488 468 479 q 492 545 481 514 q 518 614 504 576 q 524 629 521 621 q 532 649 528 638 q 631 618 585 618 q 735 661 686 618 l 735 642 q 732 539 735 606 q 739 522 732 533 l 858 376 l 878 354 l 914 313 q 936 249 936 285 q 933 224 936 240 q 924 213 929 213 l 921 213 q 908 217 913 213 q 903 231 903 225 q 892 263 901 249 q 865 296 883 276 q 826 335 826 335 q 815 338 821 338 l 839 290 q 851 265 843 282 q 864 233 860 249 q 868 204 868 218 q 867 144 869 185 q 860 128 867 142 q 846 181 856 140 q 828 246 835 225 q 768 346 810 296 l 764 343 l 785 311 q 847 129 839 235 l 857 60 q 856 44 857 49 q 840 32 850 32 q 829 39 833 32 q 806 92 814 65 q 781 197 790 146 q 733 307 768 254 l 717 335 l 713 332 q 717 324 715 328 q 719 317 718 319 q 757 247 749 264 q 779 156 779 200 q 772 106 779 126 q 769 83 771 99 q 765 61 768 68 q 760 52 764 57 q 753 44 756 47 q 746 51 751 46 q 739 60 740 56 q 725 125 732 86 q 718 163 724 138 q 712 194 717 171 q 699 236 707 218 q 665 276 692 258 q 601 356 631 303 q 557 411 593 368 l 551 408 m 229 -40 q 217 -44 224 -44 q 201 -39 213 -44 q 172 -9 185 -29 q 153 19 158 11 q 118 140 118 72 q 125 210 118 171 q 128 244 128 221 q 111 114 108 167 q 122 68 113 89 q 146 19 131 47 l 160 -7 l 157 -10 q 139 0 142 -3 q 97 79 113 26 q 78 179 83 135 q 75 206 75 199 q 106 300 75 254 l 142 357 q 176 414 164 396 q 190 457 190 433 q 186 486 190 472 l 175 522 q 160 571 165 550 l 150 611 q 242 588 200 588 q 346 631 299 588 q 399 521 363 593 q 458 435 421 474 q 474 394 474 419 q 472 325 475 363 q 468 276 469 288 q 467 214 468 235 q 460 135 465 188 q 442 115 457 115 q 419 136 419 118 q 417 199 417 178 l 415 231 q 414 259 415 240 q 411 290 413 278 q 406 302 410 296 q 397 310 403 308 l 394 310 q 376 303 383 310 q 363 288 369 297 q 351 274 356 279 l 329 253 l 285 211 q 238 114 238 167 q 242 85 238 100 q 260 36 244 72 q 274 3 265 25 q 279 -19 279 -11 q 273 -28 278 -26 q 264 -24 268 -29 q 226 38 256 -11 q 218 54 222 46 q 208 71 214 63 q 196 122 196 90 q 219 231 196 182 l 224 244 l 218 247 q 210 228 215 240 q 203 207 204 217 q 190 108 196 175 l 190 104 q 194 83 190 94 l 207 58 q 264 -33 236 -3 q 265 -44 268 -40 q 254 -49 264 -49 q 243 -42 247 -46 q 156 97 178 19 q 150 138 150 115 q 174 231 150 179 q 181 247 179 242 q 178 250 181 247 q 172 241 175 246 q 165 229 168 236 q 144 132 144 176 q 164 58 144 93 q 218 -26 171 47 l 229 -40 m 543 125 q 525 115 533 115 q 508 127 515 115 q 499 143 501 139 q 494 140 496 140 l 510 110 l 488 94 l 467 108 q 461 103 461 103 l 485 90 l 481 86 l 463 61 q 443 68 447 67 l 442 65 l 458 53 l 450 29 l 425 36 l 424 32 l 439 25 q 447 18 444 19 q 452 13 449 17 q 458 8 456 8 q 489 8 465 8 q 532 13 513 8 q 635 110 610 32 q 622 117 622 110 q 624 128 622 121 q 619 140 626 136 l 611 118 l 590 122 q 589 147 589 132 l 585 147 q 582 125 582 133 l 551 125 l 546 150 q 540 149 542 150 q 543 125 543 132 m 567 36 q 560 73 567 61 q 528 107 554 85 q 569 118 550 118 q 626 106 592 118 q 603 63 621 83 q 567 36 586 43 m 549 28 q 489 13 522 13 q 453 15 478 13 q 474 67 461 46 q 513 103 488 89 q 517 56 510 74 q 549 28 525 38 z "},"@":{"ha":1072,"x_min":36,"x_max":1053,"o":"m 303 613 l 451 742 l 596 742 l 650 679 l 657 732 l 792 732 l 732 304 l 763 228 l 792 228 q 933 287 886 228 q 979 476 979 346 q 928 693 979 600 q 780 838 876 786 q 553 889 683 889 q 327 831 428 889 q 169 672 226 772 q 111 449 111 571 q 165 213 111 313 q 315 61 218 114 q 536 8 411 8 q 676 24 608 8 q 796 68 744 40 l 828 7 q 699 -36 790 -12 q 536 -60 608 -60 q 276 1 390 -60 q 99 178 163 63 q 36 449 36 293 q 105 707 36 590 q 292 891 174 824 q 553 958 410 958 q 813 898 699 958 q 990 728 926 838 q 1053 476 1053 618 q 989 236 1053 315 q 788 157 925 157 l 713 157 l 635 256 l 513 147 l 356 147 l 254 265 l 303 613 m 399 325 l 463 249 l 526 303 l 597 304 l 638 592 l 539 658 l 429 551 l 399 325 z "},"&":{"ha":726,"x_min":42,"x_max":690,"o":"m 42 167 l 69 365 l 279 514 l 125 747 l 235 883 l 596 883 l 575 725 l 293 725 l 539 335 l 550 421 l 624 421 l 679 281 l 617 208 l 690 92 l 617 0 l 540 118 l 439 0 l 201 0 l 42 167 m 224 181 l 331 79 l 468 225 l 325 444 l 254 390 l 224 181 z "},"¶":{"ha":728,"x_min":56,"x_max":714,"o":"m 56 728 l 81 906 l 247 972 l 714 972 l 697 847 l 603 847 l 471 -94 l 338 -96 l 471 847 l 363 847 l 229 -94 l 99 -94 l 197 615 l 56 728 z "},"§":{"ha":643,"x_min":14,"x_max":660,"o":"m 14 108 l 90 200 l 175 200 l 163 111 l 226 74 l 342 147 l 365 314 l 293 272 l 119 324 l 88 361 l 114 567 l 218 625 l 133 711 l 153 861 l 332 1018 l 563 1018 l 660 904 l 583 813 l 499 813 l 511 901 l 463 939 l 329 844 l 307 675 l 358 703 l 486 703 l 583 589 l 561 431 l 469 376 l 540 306 l 517 135 l 340 -19 l 124 -19 l 14 108 m 225 340 l 418 463 l 435 586 l 386 624 l 253 529 l 225 340 z "},"©":{"ha":1139,"x_min":69,"x_max":1069,"o":"m 569 -14 q 215 131 363 -14 q 69 486 69 275 q 136 740 69 625 q 317 920 203 854 q 569 986 432 986 q 820 919 706 986 q 1002 738 935 853 q 1069 486 1069 624 q 1003 233 1069 347 q 822 52 936 118 q 569 -14 707 -14 m 569 69 q 776 124 682 69 q 925 275 871 179 q 979 486 979 371 q 924 697 979 601 q 776 847 869 792 q 569 903 682 903 q 279 783 399 903 q 160 486 160 661 q 214 275 160 371 q 363 124 268 179 q 569 69 457 69 m 446 215 l 350 325 l 396 657 l 521 765 l 728 765 l 763 675 l 713 646 l 651 706 l 529 632 l 492 350 l 590 268 l 671 335 l 728 301 l 664 215 l 446 215 z "},"®":{"ha":1139,"x_min":69,"x_max":1069,"o":"m 569 -14 q 215 131 363 -14 q 69 486 69 275 q 136 740 69 625 q 317 920 203 854 q 569 986 432 986 q 820 919 706 986 q 1002 738 935 853 q 1069 486 1069 624 q 1003 233 1069 347 q 822 52 936 118 q 569 -14 707 -14 m 569 69 q 776 124 682 69 q 925 275 871 179 q 979 486 979 371 q 924 697 979 601 q 776 847 869 792 q 569 903 682 903 q 279 783 399 903 q 160 486 160 661 q 214 275 160 371 q 363 124 268 179 q 569 69 457 69 m 382 225 l 458 758 l 507 758 l 542 725 l 579 758 l 682 758 l 757 672 l 724 442 l 632 364 l 679 225 l 586 225 l 539 364 l 497 410 l 472 225 l 382 225 m 532 660 l 506 467 l 546 467 l 576 432 l 632 482 l 653 632 l 594 701 l 532 660 z "},"°":{"ha":449,"x_min":69,"x_max":379,"o":"m 69 822 l 82 904 l 93 985 l 247 1068 l 379 983 l 368 904 l 356 821 l 201 739 l 69 822 m 149 863 l 213 822 l 289 863 l 294 904 l 300 943 l 236 983 l 160 943 l 149 863 z "},"|":{"ha":394,"x_min":42,"x_max":356,"o":"m 204 972 l 356 972 l 193 -222 l 42 -222 l 204 972 z "},"¦":{"ha":399,"x_min":47,"x_max":360,"o":"m 147 528 l 210 972 l 360 972 l 297 528 l 147 528 m 47 -183 l 110 261 l 260 261 l 197 -183 l 47 -183 z "},"†":{"ha":775,"x_min":61,"x_max":749,"o":"m 235 0 l 308 531 l 61 531 l 82 675 l 329 675 l 343 775 l 472 944 l 539 944 l 501 675 l 749 675 l 728 531 l 481 531 l 407 0 l 235 0 z "},"‡":{"ha":775,"x_min":21,"x_max":756,"o":"m 235 0 l 268 244 l 21 244 l 42 389 l 289 389 l 315 575 l 68 575 l 89 719 l 335 719 l 343 775 l 472 944 l 539 944 l 507 719 l 756 719 l 735 575 l 488 575 l 461 389 l 708 389 l 688 244 l 440 244 l 407 0 l 235 0 z "},"^":{"ha":522,"x_min":49,"x_max":475,"o":"m 49 775 l 200 956 l 374 956 l 475 775 l 368 775 l 275 874 l 156 775 l 49 775 z "}}}
